<svg width="84" height="84" viewBox="0 0 84 84" fill="none" xmlns="http://www.w3.org/2000/svg">
<path d="M39.7916 21.4285C39.7916 15.1268 34.6648 10 28.3631 10C22.0614 10 16.9346 15.1268 16.9346 21.4285C16.9346 27.7302 22.0614 32.857 28.3631 32.857C34.6648 32.857 39.7916 27.7302 39.7916 21.4285ZM72.8474 42.3015L56.8475 33.1587C56.5022 32.9615 56.1114 32.8577 55.7138 32.8577C55.3161 32.8577 54.9253 32.9615 54.5801 33.1587L38.5802 42.3015C38.2303 42.5014 37.9395 42.7901 37.7372 43.1385C37.5349 43.4869 37.4283 43.8826 37.4282 44.2855C37.4282 54.5346 41.9767 63.6065 50.5732 70.5162L54.2806 73.4945C54.6866 73.8217 55.1923 74.0002 55.7138 74.0002C56.2352 74.0002 56.7409 73.8217 57.1469 73.4945L60.852 70.5162C69.4531 63.6065 73.9994 54.5346 73.9994 44.2855C73.9992 43.8826 73.8926 43.4869 73.6903 43.1385C73.488 42.7901 73.1972 42.5014 72.8474 42.3015ZM64.3994 47.9426L57.5423 57.0854C57.3465 57.3483 57.0963 57.5659 56.8088 57.7232C56.5212 57.8806 56.2031 57.9741 55.8761 57.9973C55.5491 58.0205 55.221 57.9729 54.9141 57.8578C54.6072 57.7426 54.3288 57.5626 54.0978 57.33L49.5264 52.7586C49.3081 52.5478 49.1339 52.2955 49.0141 52.0167C48.8944 51.7378 48.8313 51.4379 48.8287 51.1344C48.826 50.8309 48.8839 50.5299 48.9988 50.249C49.1137 49.9681 49.2834 49.7129 49.498 49.4983C49.7127 49.2837 49.9679 49.114 50.2488 48.999C50.5297 48.8841 50.8306 48.8263 51.1341 48.8289C51.4376 48.8315 51.7376 48.8946 52.0164 49.0144C52.2953 49.1342 52.5475 49.3083 52.7584 49.5266L55.4669 52.2352L60.7423 45.1998C60.9224 44.9597 61.148 44.7574 61.4063 44.6044C61.6646 44.4515 61.9505 44.3509 62.2476 44.3085C62.5448 44.266 62.8474 44.2825 63.1381 44.357C63.4289 44.4315 63.7022 44.5626 63.9423 44.7426C64.1824 44.9227 64.3847 45.1484 64.5377 45.4067C64.6906 45.6649 64.7911 45.9508 64.8336 46.248C64.876 46.5451 64.8596 46.8477 64.7851 47.1385C64.7106 47.4292 64.5795 47.7025 64.3994 47.9426Z" fill="white"/>
<path d="M37.449 40.3177L43.6798 36.7543C41.5838 34.384 38.5507 32.8572 35.1358 32.8572H21.4354C15.1291 32.8572 10 37.9657 10 44.2468V60.2856C10 60.8918 10.2408 61.4732 10.6695 61.9018C11.0981 62.3305 11.6795 62.5713 12.2857 62.5713H40.3884C36.9309 57.1015 35.1107 50.7566 35.1427 44.2857C35.1427 42.6468 36.0273 41.1268 37.449 40.3177Z" fill="white"/>
</svg>
