<svg width="84" height="84" viewBox="0 0 84 84" fill="none" xmlns="http://www.w3.org/2000/svg">
<path d="M42.4 22.7998C45.9347 22.7998 48.8001 19.9345 48.8001 16.3999C48.8001 12.8653 45.9347 10 42.4 10C38.8654 10 36 12.8653 36 16.3999C36 19.9345 38.8654 22.7998 42.4 22.7998Z" fill="white"/>
<path d="M36 67.6C30.704 67.6 26.4 63.2962 26.4 58.0003C26.4 53.8244 29.072 50.2725 32.8001 48.9604V42.3206C25.5039 43.8087 20 50.2564 20 58.0003C20 66.832 27.168 73.9999 36 73.9999C43.744 73.9999 50.1919 68.4961 51.6799 61.2003H45.0399C43.728 64.9281 40.176 67.6 36 67.6Z" fill="white"/>
<path d="M64.8001 45.1984V38.7985C59.888 38.8625 54.9121 36.3986 51.776 32.9266L47.632 28.3507C47.0721 27.7427 46.4001 27.2627 45.6801 26.8946C45.656 26.8826 45.6343 26.8664 45.616 26.8466H45.5841C44.4801 26.2066 43.168 25.8867 41.776 26.0307C38.448 26.3506 36 29.3426 36 32.6864V51.598C36 55.1338 38.8639 57.9979 42.4 57.9979H58.4V73.9975H64.8001V56.398C64.8001 52.8621 61.9361 49.9981 58.4 49.9981H48.8001V38.9584C52.928 42.3665 59.1841 45.1823 64.8001 45.1984Z" fill="white"/>
</svg>
