<svg width="84" height="84" viewBox="0 0 84 84" fill="none" xmlns="http://www.w3.org/2000/svg">
<path d="M20.2884 16.9301C20.2884 16.1956 19.6994 15.599 18.9651 15.599H14.5822C13.8556 15.599 13.2589 16.1956 13.2589 16.9301V18.7199H20.2884V16.9301ZM70.6424 16.9301C70.6424 16.1956 70.0458 15.599 69.3191 15.599H64.9362C64.2019 15.599 63.6129 16.1956 63.6129 16.9301V18.7199H70.6424V16.9301ZM33.2306 13.8245C33.2306 13.4038 33.5749 13.0596 33.9955 13.0596H49.9057C50.3264 13.0596 50.6707 13.4038 50.6707 13.8245V18.72H53.7303V13.8245C53.7303 11.721 52.0169 10 49.9057 10H33.9955C31.8844 10 30.171 11.7211 30.171 13.8245V18.72H33.2306V13.8245ZM74.8417 20.2498H9.0596C7.36913 20.2498 6 21.619 6 23.3093V67.4982C6 69.1887 7.36913 70.5578 9.0596 70.5578H11.3238V72.4701C11.3238 73.3115 12.0121 74 12.8536 74H19.6231C20.4645 74 21.153 73.3115 21.153 72.4701V70.5578H62.7487V72.4701C62.7487 73.3115 63.4372 74 64.2786 74H71.0481C71.8894 74 72.5779 73.3115 72.5779 72.4701V70.5578H74.8421C76.5326 70.5578 77.9017 69.1885 77.9017 67.4982V23.3093C77.9014 21.619 76.5322 20.2498 74.8417 20.2498ZM41.9506 61.826C32.8779 61.826 25.5246 54.4727 25.5246 45.4C25.5246 36.3337 32.8779 28.974 41.9506 28.974C51.0233 28.974 58.3766 36.3339 58.3766 45.4C58.3766 54.4727 51.0233 61.826 41.9506 61.826Z" fill="white"/>
<path d="M51.447 42.2065H45.1442V35.9036C45.1442 35.0586 44.4592 34.3738 43.6143 34.3738H40.2793C39.4344 34.3738 38.7494 35.0586 38.7494 35.9036V42.2065H32.4542C31.6093 42.2065 30.9243 42.8915 30.9243 43.7364V47.0712C30.9243 47.9161 31.6092 48.6011 32.4542 48.6011H38.7494V54.8963C38.7494 55.7412 39.4343 56.4262 40.2793 56.4262H43.6143C44.4592 56.4262 45.1442 55.7413 45.1442 54.8963V48.6011H51.447C52.2919 48.6011 52.9769 47.9162 52.9769 47.0712V43.7364C52.9769 42.8915 52.2919 42.2065 51.447 42.2065Z" fill="white"/>
</svg>
