<svg width="84" height="84" viewBox="0 0 84 84" fill="none" xmlns="http://www.w3.org/2000/svg">
<path d="M42.0002 26.8079C33.5675 26.8079 26.7318 33.6095 26.7318 42C26.7318 50.3904 33.5673 57.1919 42.0002 57.1919C50.4321 57.1919 57.2684 50.3899 57.2684 42C57.259 33.6133 50.4283 26.8172 42.0002 26.8079ZM52.1579 37.6322C51.5525 42.7239 49.8405 47.6234 47.1407 51.9905C46.9955 52.2252 46.7847 52.4127 46.534 52.53C46.2834 52.6473 46.0038 52.6894 45.7295 52.6511C45.4553 52.6124 45.1983 52.495 44.9901 52.3132C44.782 52.1314 44.6316 51.8931 44.5576 51.6275L44.1793 50.2707C43.7795 48.8368 42.9981 47.537 41.9175 46.5084L41.8785 46.4706L41.8607 46.4893C40.8728 47.5136 40.1664 48.7735 39.8091 50.1479L39.4376 51.5832C39.3679 51.8522 39.2201 52.0949 39.0127 52.2809C38.8053 52.467 38.5475 52.5882 38.2714 52.6295C37.9952 52.6707 37.713 52.6302 37.4598 52.5129C37.2067 52.3957 36.9938 52.2069 36.8477 51.9701C34.1557 47.6098 32.4482 42.7195 31.8434 37.6378C31.7534 36.8059 31.8488 35.9646 32.1229 35.1737C32.397 34.3827 32.843 33.6617 33.4291 33.0618C34.0151 32.4618 34.7269 31.9978 35.5137 31.7027C36.3005 31.4076 37.143 31.2887 37.9812 31.3546C38.611 31.404 39.089 31.7186 39.5948 32.0505C39.8797 32.2451 40.1765 32.4219 40.4834 32.58C41.6175 32.2936 45.1371 31.4195 46.0591 31.3512C46.8945 31.2896 47.7332 31.4116 48.5159 31.7086C49.2986 32.0056 50.0061 32.4702 50.5882 33.0696C51.1703 33.6689 51.6128 34.3884 51.8843 35.1769C52.1558 35.9653 52.2496 36.8036 52.1592 37.6322H52.1579Z" fill="white"/>
<path d="M64.8061 31.9628C59.4589 27.1893 51.162 21.5 42.0002 21.5C32.8379 21.5 24.5408 27.1897 19.1939 31.9628C15.8079 35.0024 12.7286 38.3641 10 42C12.7286 45.6358 15.8081 48.9973 19.1945 52.0365C24.5415 56.8107 32.8386 62.5 42.0008 62.5C51.1624 62.5 59.4596 56.8101 64.8065 52.0365C68.1927 48.9974 71.2719 45.6359 74 42C71.2714 38.3641 68.1921 35.0024 64.8061 31.9628ZM42.0004 59.181C32.4637 59.1806 24.7329 51.4888 24.7329 42C24.7329 32.5112 32.4637 24.8187 42.0004 24.8187C51.5368 24.8187 59.2677 32.5109 59.2677 41.9999C59.2565 51.4843 51.5323 59.1698 42.0004 59.1809V59.181Z" fill="white"/>
</svg>
