<svg width="84" height="84" viewBox="0 0 84 84" fill="none" xmlns="http://www.w3.org/2000/svg">
<path d="M41.9994 29.2504C45.5201 29.2504 48.3742 26.3963 48.3742 22.8756C48.3742 19.3548 45.5201 16.5007 41.9994 16.5007C38.4786 16.5007 35.6245 19.3548 35.6245 22.8756C35.6245 26.3963 38.4786 29.2504 41.9994 29.2504Z" fill="white"/>
<path d="M51.5487 46.5772L50.1016 35.3064C50.0253 34.5197 49.6583 33.7897 49.0724 33.2592C48.4864 32.7287 47.7237 32.4358 46.9333 32.4378H45.1866C44.7626 32.4378 44.3578 32.6067 44.0582 32.9031L41.9991 34.9622L39.9401 32.9031C39.6399 32.6055 39.2344 32.4382 38.8117 32.4378H37.0682C35.4235 32.4378 34.0593 33.6713 33.8999 35.265L32.4496 46.5803C32.3922 47.033 32.5325 47.4919 32.8353 47.833C32.9845 48.0032 33.1683 48.1396 33.3744 48.233C33.5805 48.3265 33.8042 48.3748 34.0306 48.3749H35.7518L37.0841 64.6307C37.2435 66.2627 38.6109 67.4994 40.2556 67.4994H43.7458C45.3906 67.4994 46.7548 66.2627 46.9205 64.602L48.2497 48.3749H49.9677C50.4267 48.3749 50.8602 48.1772 51.163 47.833C51.3142 47.664 51.4269 47.4642 51.4935 47.2474C51.5601 47.0306 51.5789 46.8019 51.5487 46.5772Z" fill="white"/>
<path d="M57.9366 29.2504C61.4573 29.2504 64.3115 26.3963 64.3115 22.8756C64.3115 19.3548 61.4573 16.5007 57.9366 16.5007C54.4159 16.5007 51.5618 19.3548 51.5618 22.8756C51.5618 26.3963 54.4159 29.2504 57.9366 29.2504Z" fill="white"/>
<path d="M26.0622 16.5007C22.5465 16.5007 19.6874 19.3598 19.6874 22.8756C19.6874 26.3913 22.5465 29.2504 26.0622 29.2504C29.5748 29.2504 32.4371 26.3913 32.4371 22.8756C32.4371 19.3598 29.5748 16.5007 26.0622 16.5007ZM67.486 46.5772L66.0389 35.3097C65.8763 33.6714 64.5153 32.4378 62.8706 32.4378H61.1239C60.7 32.4378 60.2952 32.6068 59.9955 32.9032L57.9365 34.9623L55.8774 32.9032C55.5778 32.6068 55.173 32.4378 54.7522 32.4378H53.0055C52.8079 32.4378 52.6294 32.508 52.4413 32.543C52.8525 33.2698 53.1744 34.057 53.2701 34.94L54.714 46.1724C54.8925 47.5398 54.4654 48.9168 53.5474 49.9527C53.1139 50.45 52.5593 50.8006 51.9664 51.0747L53.0246 61.4434C53.1872 63.0785 54.5514 64.312 56.1961 64.312H59.6864C61.3311 64.312 62.6953 63.0753 62.861 61.4147L64.187 48.3749H65.905C66.364 48.3749 66.7975 48.1773 67.1003 47.8331C67.2515 47.664 67.3643 47.4642 67.4308 47.2474C67.4974 47.0306 67.5162 46.802 67.486 46.5772ZM30.4417 49.9368C29.5365 48.9136 29.1158 47.5398 29.2879 46.1788L30.7382 34.8603C30.821 34.0124 31.1334 33.2474 31.5318 32.5398C31.3533 32.508 31.1844 32.4378 30.9964 32.4378H29.2496C28.8257 32.4378 28.4209 32.6068 28.1213 32.9032L26.0622 34.9623L24.0031 32.9032C23.7035 32.6068 23.2987 32.4378 22.878 32.4378H21.1312C19.4865 32.4378 18.1223 33.6714 17.9629 35.2651L16.5126 46.5804C16.4552 47.033 16.5955 47.492 16.8983 47.8331C17.0477 48.003 17.2315 48.1392 17.4376 48.2327C17.6437 48.3261 17.8673 48.3746 18.0936 48.3749H19.8148L21.1471 61.4434C21.3065 63.0753 22.6739 64.312 24.3186 64.312H27.8088C29.4535 64.312 30.8178 63.0753 30.9835 61.4147L32.0417 51.0715C31.4458 50.7942 30.888 50.4404 30.4417 49.9368Z" fill="white"/>
</svg>
