<svg width="84" height="84" viewBox="0 0 84 84" fill="none" xmlns="http://www.w3.org/2000/svg">
<path d="M69.6416 36.5571C69.4653 27.3748 68.1854 20.5937 68.1991 20.5887C67.6427 19.5149 66.7159 18.6791 65.5904 18.2363C58.0906 15.3276 50.7158 12.5514 43.5259 10.1827C42.7957 9.9391 42.0062 9.9391 41.276 10.1827C34.0874 12.5451 26.7138 15.3163 19.2153 18.2213C18.227 18.6143 17.3898 19.3123 16.8253 20.2137C16.8666 20.22 15.2829 25.1636 15.0141 36.0883C14.8479 46.9993 16.2066 50.273 16.1628 50.2768C16.8978 52.6755 18.2753 55.1179 20.2502 57.6003C22.4564 60.3728 25.4376 63.2365 29.0375 66.0527C34.9999 70.7313 40.5785 73.5275 40.8123 73.6262C41.308 73.8721 41.8539 74 42.4072 74C42.9606 74 43.5064 73.8721 44.0022 73.6262C44.2372 73.5275 49.822 70.7225 55.7807 66.0452C59.3818 63.2277 62.3643 60.364 64.5717 57.5928C66.6867 54.9342 68.1166 52.3255 68.8079 49.763C68.7804 49.7568 69.7803 45.7494 69.6416 36.5571ZM57.0481 43.1744V43.2007C56.9551 44.0715 56.5649 44.8838 55.9432 45.5006C55.3169 46.1189 54.4986 46.5052 53.6232 46.5956C53.0132 46.6594 49.7946 46.7069 47.7483 46.7406C47.7146 48.7193 47.6646 51.9242 47.5971 52.5617C47.5041 53.4326 47.1139 54.2448 46.4921 54.8617C45.8657 55.4799 45.0476 55.8666 44.1722 55.9579H44.1459C43.5982 56.0212 43.0473 56.0529 42.496 56.0529C41.8348 56.0563 41.1739 56.0246 40.516 55.9579H40.4898C39.6144 55.8666 38.7962 55.4799 38.1698 54.8617C37.5481 54.2448 37.1579 53.4326 37.0648 52.5617C36.9973 51.9242 36.9473 48.7231 36.9136 46.7456C34.9199 46.7119 31.7012 46.6619 31.0587 46.5956C30.1814 46.5062 29.361 46.1193 28.7338 45.4994C28.1111 44.8832 27.7207 44.0706 27.6288 43.1994V43.1732C27.5648 42.6301 27.5327 42.0838 27.5326 41.537C27.5292 40.8811 27.5613 40.2256 27.6288 39.5733V39.547C27.7207 38.6758 28.1111 37.8633 28.7338 37.2471C29.3596 36.6288 30.1775 36.2426 31.0525 36.1521C31.6962 36.0858 34.9174 36.0346 36.9123 36.0021C36.9461 33.9696 36.9948 30.766 37.0586 30.1622C37.1516 29.2914 37.5418 28.4791 38.1636 27.8623C38.79 27.244 39.6081 26.8574 40.4835 26.7661H40.5098C41.1675 26.6997 41.8291 26.6792 42.4897 26.7048C43.0405 26.6792 43.5924 26.6997 44.1397 26.7661H44.1659C45.0413 26.8574 45.8595 27.244 46.4859 27.8623C47.1076 28.4791 47.4978 29.2914 47.5909 30.1622C47.6546 30.7672 47.7033 33.9734 47.7371 36.0071C49.7883 36.0408 53.0107 36.0883 53.6207 36.1521C54.4964 36.2432 55.3148 36.6303 55.9407 37.2496C56.5624 37.8664 56.9526 38.6786 57.0456 39.5495V39.5758C57.1128 40.228 57.1332 40.8843 57.1069 41.5395C57.1341 42.0851 57.1144 42.6321 57.0481 43.1744Z" fill="white"/>
</svg>
