<svg width="84" height="84" viewBox="0 0 84 84" fill="none" xmlns="http://www.w3.org/2000/svg">
<path d="M50.166 34.5106H58.3362V26.3404H66.5064V18.1702H58.3362V10H50.166V18.1702H41.9957V26.3404H50.166V34.5106ZM7 43.8241V74H12.0011L24.6204 69.4068L14.3667 41.2349L7 43.8241ZM69.3488 47.07L59.9702 51.4424C59.9588 51.9024 59.913 52.3609 59.8331 52.8141C59.0764 57.6976 54.0328 61.229 49.1851 60.2704L37.2015 58.1573L37.9108 54.1341L49.8955 56.2475C52.6726 56.7365 55.3205 54.882 55.8099 52.1049C56.2995 49.3277 54.445 46.6795 51.6679 46.1898L38.9293 43.9437C36.8536 42.1177 34.34 40.861 31.6337 40.2962C28.7166 39.6862 25.6869 39.9033 22.8866 40.9232L19.1016 42.3007L28.0294 66.8298L48.5703 69.6528L73.9429 56.3551C74.7803 55.9162 75.4816 55.2566 75.9709 54.4477C76.4602 53.6388 76.7189 52.7114 76.7189 51.766C76.7192 47.9761 72.7836 45.4687 69.3488 47.07Z" fill="white"/>
</svg>
