<svg width="39" height="39" viewBox="0 0 39 39" fill="none" xmlns="http://www.w3.org/2000/svg">
<g clip-path="url(#clip0_337_871)">
<path d="M35.064 10.8957C34.1392 9.97139 33.0167 9.5091 31.6958 9.5091C30.3755 9.5091 29.253 9.97139 28.3281 10.8957C27.4039 11.8203 26.9418 12.9427 26.9418 14.2637C26.9418 15.2871 27.2347 16.2035 27.8206 17.0121C28.4071 17.8213 29.1703 18.3987 30.1114 18.7455V28.527C30.1114 30.277 29.3353 31.7711 27.7838 33.0092C26.232 34.2471 24.3668 34.8663 22.1874 34.8663C20.0085 34.8663 18.1428 34.2471 16.5909 33.0092C15.0392 31.7712 14.2632 30.277 14.2632 28.527V25.2583C16.9708 24.9283 19.2324 23.8714 21.0485 22.0883C22.8644 20.3057 23.7726 18.2255 23.7726 15.8479V3.16985C23.7726 2.74069 23.6154 2.36904 23.3018 2.05532C22.9885 1.74204 22.6163 1.58488 22.1869 1.58488C22.0884 1.58488 21.9561 1.60162 21.7911 1.63449C21.5103 1.13898 21.1226 0.743305 20.627 0.445723C20.1325 0.148401 19.5955 0 19.0178 0C18.1431 0 17.3961 0.309898 16.7769 0.928568C16.1577 1.54776 15.8482 2.29479 15.8482 3.16985C15.8482 4.04455 16.1577 4.79167 16.7769 5.41078C17.3961 6.02988 18.1431 6.33943 19.0178 6.33943C19.5626 6.33943 20.0907 6.19103 20.6026 5.89371V15.8483C20.6026 17.5985 19.8268 19.0923 18.275 20.3307C16.7231 21.5684 14.8575 22.1873 12.6785 22.1873C10.4996 22.1873 8.63399 21.5683 7.08216 20.3307C5.53049 19.0926 4.75449 17.5987 4.75449 15.8483V5.89371C5.26605 6.19094 5.79468 6.33943 6.33937 6.33943C7.21408 6.33943 7.9612 6.02997 8.5803 5.41078C9.19932 4.79159 9.5087 4.04455 9.5087 3.16985C9.5087 2.29488 9.19932 1.54776 8.5803 0.928568C7.96111 0.309898 7.21399 0 6.33928 0C5.76138 0 5.22476 0.148401 4.72951 0.445723C4.23444 0.742958 3.84631 1.1389 3.56581 1.63449C3.4005 1.60171 3.26857 1.58488 3.16944 1.58488C2.73993 1.58488 2.36863 1.74204 2.05491 2.05532C1.74137 2.36904 1.58447 2.74069 1.58447 3.16985V15.8484C1.58447 18.2255 2.49222 20.3052 4.30833 22.0884C6.12436 23.8715 8.38602 24.9284 11.0934 25.2588V28.5273C11.0934 31.1524 12.1789 33.3933 14.3499 35.2502C16.5209 37.1074 19.1332 38.0358 22.1869 38.0358C25.2418 38.0358 27.8538 37.1074 30.0247 35.2502C32.1962 33.3933 33.2808 31.1524 33.2808 28.5273V18.7455C34.2222 18.3987 34.9856 17.8212 35.5716 17.0121C36.158 16.2034 36.4514 15.287 36.4514 14.2637C36.4511 12.9431 35.989 11.8202 35.064 10.8957ZM32.8113 15.3779C32.4972 15.6916 32.1256 15.8484 31.6964 15.8484C31.2672 15.8484 30.8961 15.6916 30.5821 15.3779C30.2687 15.0643 30.112 14.6929 30.112 14.2637C30.112 13.8345 30.2687 13.4628 30.5821 13.1491C30.8961 12.8358 31.2672 12.6787 31.6964 12.6787C32.1256 12.6787 32.4971 12.8358 32.8113 13.1491C33.1247 13.4628 33.2814 13.8345 33.2814 14.2637C33.2814 14.6932 33.1247 15.0643 32.8113 15.3779Z" fill="#1F1F1F"/>
</g>
<defs>
<clipPath id="clip0_337_871">
<rect width="38.0357" height="38.0357" fill="white"/>
</clipPath>
</defs>
</svg>
