<svg width="39" height="39" viewBox="0 0 39 39" fill="none" xmlns="http://www.w3.org/2000/svg">
<path d="M12.1743 36.1338C12.7018 36.1338 13.2419 36.1308 13.7938 36.1308H24.2411C24.7922 36.1308 25.3323 36.1338 25.8599 36.1338C30.6938 36.1338 34.3875 35.8866 34.3875 30.8332C34.3875 25.5439 30.3424 21.2018 25.1764 20.7297C25.1353 22.5802 19.0192 27.1467 19.0192 27.1467C19.0192 27.1467 12.9015 22.5806 12.86 20.7301C7.69479 21.2018 3.64893 25.5439 3.64893 30.8332C3.64893 35.8866 7.34105 36.1338 12.1743 36.1338ZM23.5823 29.233C23.5823 29.0824 23.7181 28.961 23.887 28.961H25.5392V27.3095C25.5392 27.1422 25.6598 27.0049 25.8104 27.0049H27.441C27.5909 27.0049 27.7122 27.141 27.7122 27.3095V28.9614H29.3637C29.5311 28.9614 29.668 29.0828 29.668 29.2334V30.8632C29.668 31.0138 29.5322 31.1352 29.3637 31.1352H27.7118V32.7867C27.7118 32.9548 27.5901 33.091 27.4399 33.091H25.8101C25.6594 33.091 25.5381 32.9552 25.5381 32.7867V31.1348H23.8866C23.7185 31.1348 23.5819 31.0135 23.5819 30.8628L23.5823 29.233Z" fill="#1F1F1F"/>
<path d="M19.0213 22.0576C23.6936 22.0576 27.4808 15.032 27.4808 10.3601C27.4808 5.68895 23.6936 1.90173 19.0213 1.90173C14.3497 1.90173 10.5625 5.68895 10.5625 10.3601C10.5625 15.032 14.3497 22.0576 19.0213 22.0576Z" fill="#1F1F1F"/>
</svg>
