<svg width="39" height="39" viewBox="0 0 39 39" fill="none" xmlns="http://www.w3.org/2000/svg">
<g clip-path="url(#clip0_337_1070)">
<path d="M38.0331 10.7022C38.0331 7.84345 36.9199 5.15601 34.8985 3.13461C32.8771 1.1132 30.1896 0 27.331 0C24.4723 0 21.7848 1.1132 19.7634 3.13461L12.2392 10.6587L27.3744 25.7939L34.8985 18.2698C36.9199 16.2483 38.0331 13.5609 38.0331 10.7022ZM10.6561 12.2418L3.13202 19.7659C-1.04079 23.9387 -1.04071 30.7283 3.13202 34.9011C5.15335 36.9225 7.84094 38.0357 10.6996 38.0357C13.5582 38.0357 16.2458 36.9225 18.2671 34.9011L25.7913 27.377L10.6561 12.2418Z" fill="#1F1F1F"/>
</g>
<defs>
<clipPath id="clip0_337_1070">
<rect width="38.0357" height="38.0357" fill="white"/>
</clipPath>
</defs>
</svg>
