<svg width="39" height="39" viewBox="0 0 39 39" fill="none" xmlns="http://www.w3.org/2000/svg">
<path d="M34.1926 15.8892C34.0941 10.759 33.379 6.97039 33.3866 6.96759C33.0758 6.36762 32.558 5.90068 31.9292 5.65327C27.739 4.02818 23.6186 2.47711 19.6016 1.15371C19.1937 1.01761 18.7525 1.01761 18.3446 1.15371C14.3283 2.47362 10.2086 4.02189 6.01915 5.64489C5.46699 5.86449 4.99924 6.25444 4.68387 6.75808C4.70692 6.76157 3.82209 9.5236 3.67194 15.6273C3.57906 21.7233 4.33818 23.5523 4.31374 23.5544C4.72438 24.8946 5.49398 26.2592 6.59739 27.6462C7.83001 29.1951 9.4956 30.7951 11.5069 32.3685C14.8381 34.9825 17.9549 36.5447 18.0855 36.5999C18.3625 36.7372 18.6674 36.8087 18.9766 36.8087C19.2858 36.8087 19.5907 36.7372 19.8677 36.5999C19.999 36.5447 23.1193 34.9776 26.4484 32.3643C28.4604 30.7902 30.1267 29.1902 31.36 27.642C32.5416 26.1565 33.3405 24.6991 33.7267 23.2674C33.7114 23.2639 34.2701 21.025 34.1926 15.8892ZM27.1565 19.5863V19.601C27.1046 20.0876 26.8865 20.5414 26.5392 20.886C26.1893 21.2314 25.7321 21.4472 25.243 21.4978C24.9022 21.5334 23.1039 21.5599 21.9607 21.5788C21.9419 22.6843 21.9139 24.4749 21.8762 24.8311C21.8242 25.3176 21.6062 25.7714 21.2589 26.116C20.9089 26.4615 20.4518 26.6775 19.9627 26.7285H19.948C19.642 26.7639 19.3342 26.7816 19.0262 26.7816C18.6568 26.7835 18.2875 26.7658 17.92 26.7285H17.9053C17.4162 26.6775 16.9591 26.4615 16.6091 26.116C16.2618 25.7714 16.0438 25.3176 15.9918 24.8311C15.9541 24.4749 15.9261 22.6864 15.9073 21.5816C14.7934 21.5627 12.9951 21.5348 12.6361 21.4978C12.146 21.4478 11.6876 21.2317 11.3372 20.8853C10.9893 20.541 10.7712 20.087 10.7198 19.6003V19.5856C10.6841 19.2822 10.6661 18.977 10.6661 18.6715C10.6642 18.3051 10.6821 17.9388 10.7198 17.5743V17.5597C10.7712 17.073 10.9893 16.619 11.3372 16.2747C11.6868 15.9293 12.1438 15.7135 12.6327 15.6629C12.9923 15.6259 14.792 15.5973 15.9066 15.5791C15.9254 14.4436 15.9527 12.6537 15.9883 12.3164C16.0403 11.8298 16.2583 11.376 16.6056 11.0314C16.9556 10.6859 17.4127 10.4699 17.9018 10.4189H17.9165C18.284 10.3818 18.6536 10.3704 19.0227 10.3847C19.3304 10.3704 19.6387 10.3818 19.9445 10.4189H19.9592C20.4483 10.4699 20.9054 10.6859 21.2554 11.0314C21.6027 11.376 21.8207 11.8298 21.8727 12.3164C21.9083 12.6544 21.9356 14.4457 21.9544 15.5819C23.1004 15.6008 24.9008 15.6273 25.2416 15.6629C25.7309 15.7138 26.1881 15.9301 26.5378 16.2761C26.8851 16.6207 27.1032 17.0745 27.1551 17.5611V17.5757C27.1926 17.9402 27.2041 18.3068 27.1894 18.6729C27.2046 18.9777 27.1936 19.2833 27.1565 19.5863Z" fill="#1F1F1F"/>
</svg>
