<svg width="39" height="39" viewBox="0 0 39 39" fill="none" xmlns="http://www.w3.org/2000/svg">
<g clip-path="url(#clip0_337_932)">
<path d="M20.1482 0C11.9764 0 5.32815 6.64823 5.32815 14.82V16.7668L3.11584 24.083C2.94267 24.6555 3.25246 25.2626 3.81764 25.4584L7.58808 26.7648V32.003C7.58808 32.6184 8.087 33.1174 8.70241 33.1174H14.368V36.9214C14.368 37.5368 14.8669 38.0357 15.4824 38.0357H29.0423C29.6577 38.0357 30.1566 37.5368 30.1566 36.9214V25.7488C33.2208 22.9418 34.9681 18.9881 34.9681 14.82C34.9682 6.64823 28.3199 0 20.1482 0ZM12.5462 10.3845C12.5774 9.81737 13.0303 9.36451 13.5974 9.33324C13.6905 9.32811 15.1573 9.25806 16.7425 9.78432C17.2119 7.36377 19.1559 5.59608 19.2495 5.51221C19.6727 5.13326 20.313 5.13326 20.7363 5.51221C20.8299 5.59608 22.774 7.36377 23.2433 9.78432C24.8285 9.25806 26.2954 9.32804 26.3883 9.33324C26.9555 9.36451 27.4083 9.81737 27.4396 10.3845C27.4475 10.5273 27.6086 13.905 25.5325 15.9812C23.5063 18.0074 20.2199 18.0427 19.9995 18.0427H19.9865C19.7665 18.0427 16.4798 18.0075 14.4535 15.9812C12.3772 13.905 12.5383 10.5273 12.5462 10.3845Z" fill="#1F1F1F"/>
<path d="M19.1943 11.2404C19.5094 11.5554 19.7726 11.904 19.993 12.2689C20.2133 11.904 20.4766 11.5554 20.7917 11.2404C20.8944 11.1378 21.0014 11.0395 21.1123 10.9458C21.1141 10.9034 21.1166 10.861 21.1166 10.8183C21.1166 9.7164 20.514 8.6898 19.9929 8.00806C19.4723 8.68928 18.8694 9.71632 18.8694 10.8183C18.8694 10.861 18.8719 10.9034 18.8737 10.9458C18.9846 11.0395 19.0915 11.1378 19.1943 11.2404ZM18.8111 15.6873C18.6975 14.795 18.3976 13.5956 17.6183 12.8163C16.8423 12.0403 15.6881 11.74 14.8369 11.6254C14.9507 12.4751 15.2506 13.6266 16.0294 14.4053C16.8062 15.1821 17.9524 15.5308 18.8111 15.6873ZM22.3675 12.8162C21.5916 13.5922 21.2913 14.7947 21.1767 15.6888C22.0337 15.5333 23.1768 15.185 23.9566 14.4053C24.7327 13.6292 25.0329 12.475 25.1475 11.6238C24.2979 11.7376 23.1464 12.0374 22.3675 12.8162Z" fill="#1F1F1F"/>
</g>
<defs>
<clipPath id="clip0_337_932">
<rect width="38.0357" height="38.0357" fill="white"/>
</clipPath>
</defs>
</svg>
