<svg width="84" height="84" viewBox="0 0 84 84" fill="none" xmlns="http://www.w3.org/2000/svg">
<g clip-path="url(#clip0_275_2923)">
<path d="M73.94 21.6502C73.75 20.9102 73.18 20.3402 72.46 20.1402L65.77 18.2402L63.87 11.5502C63.67 10.8202 63.09 10.2602 62.36 10.0702C61.62 9.89021 60.86 10.0902 60.31 10.6402L53.79 17.1602C53.25 17.7002 53.03 18.5002 53.25 19.2502L55.14 25.8602L49.83 31.1802L46.8 34.2102C42.778 30.8736 37.7159 29.0482 32.49 29.0502C20.08 29.0402 10 39.1302 10 51.5302C10 63.9302 20.08 74.0002 32.47 74.0002C44.86 74.0002 54.96 63.9202 54.96 51.5302C54.96 46.1002 53.02 41.1102 49.8 37.2202L52.83 34.1902L58.15 28.8802L64.76 30.7702C64.95 30.8202 65.15 30.8402 65.35 30.8402C65.9 30.8402 66.45 30.6302 66.85 30.2202L73.37 23.7002C73.91 23.1502 74.12 22.3802 73.94 21.6502ZM32.47 64.4002C25.38 64.4002 19.6 58.6202 19.6 51.5302C19.6 44.4302 25.38 38.6402 32.47 38.6402C35.25 38.6402 37.84 39.5302 39.95 41.0402L36.09 44.9002C35.01 44.3002 33.79 43.9702 32.47 43.9702C28.31 43.9702 24.93 47.3602 24.93 51.5202C24.93 55.6802 28.31 59.0602 32.47 59.0602C36.63 59.0602 40.02 55.6802 40.02 51.5202C40.02 50.2102 39.69 48.9802 39.09 47.9002L42.95 44.0402C44.46 46.1502 45.35 48.7302 45.35 51.5202C45.36 58.6202 39.58 64.4002 32.47 64.4002Z" fill="white"/>
</g>
<defs>
<clipPath id="clip0_275_2923">
<rect width="64" height="64" fill="white" transform="translate(10 10)"/>
</clipPath>
</defs>
</svg>
