<svg width="84" height="84" viewBox="0 0 84 84" fill="none" xmlns="http://www.w3.org/2000/svg">
<g clip-path="url(#clip0_275_2929)">
<path d="M41.881 40.2815C41.9204 40.2787 41.96 40.2775 42 40.2775C50.3475 40.2775 57.1387 33.4862 57.1387 25.139C57.1387 16.7914 50.3475 10.0001 42 10.0001C24.355 10.0001 10 24.3554 10 42.0001C10 54.4601 17.159 65.2786 27.5793 70.5612C24.9808 67.3646 23.4207 63.2917 23.4207 58.8607C23.4207 48.656 31.6912 40.3464 41.881 40.2815ZM42.4851 20.5607C45.1121 20.5607 47.2419 22.6902 47.2419 25.3175C47.2419 27.9445 45.112 30.0742 42.4851 30.0742C39.8581 30.0742 37.7284 27.9446 37.7284 25.3175C37.7285 22.6902 39.8581 20.5607 42.4851 20.5607Z" fill="white"/>
<path d="M56.4219 13.4398C59.0199 16.6363 60.5794 20.7085 60.5794 25.1389C60.5794 35.3435 52.3088 43.653 42.1191 43.7178C42.0797 43.7205 42.0401 43.7218 42.0001 43.7218C33.6526 43.7218 26.8616 50.5131 26.8616 58.8606C26.8616 67.2081 33.6527 73.9991 41.9999 73.9991C42.0044 73.9991 42.0087 73.9999 42.0132 73.9999C59.6519 73.9926 73.9999 59.6405 73.9999 42C73.9999 29.5406 66.8414 18.7226 56.4219 13.4398ZM42.4851 63.7194C39.8581 63.7194 37.7283 61.5898 37.7283 58.9626C37.7283 56.3355 39.8579 54.2061 42.4851 54.2061C45.1121 54.2061 47.2418 56.3356 47.2418 58.9626C47.2418 61.5896 45.1121 63.7194 42.4851 63.7194Z" fill="white"/>
</g>
<defs>
<clipPath id="clip0_275_2929">
<rect width="64" height="64" fill="white" transform="translate(10 10)"/>
</clipPath>
</defs>
</svg>
