<svg width="84" height="84" viewBox="0 0 84 84" fill="none" xmlns="http://www.w3.org/2000/svg">
<path d="M43.8749 47.7781V36.2919C46.5375 36.1157 51.3231 35.3189 54.6252 32.0166C59.3195 27.3221 58.9519 19.6253 58.934 19.3C58.8814 18.3457 58.1195 17.5837 57.1652 17.5311C56.84 17.513 49.1432 17.1455 44.4488 21.8399C43.9493 22.3394 43.5076 22.8732 43.1163 23.428C42.4285 20.6644 41.1361 17.5769 38.7201 15.1609C33.1128 9.55364 23.8856 9.99451 23.4958 10.0163C22.5415 10.0689 21.7795 10.8309 21.7269 11.7851C21.7054 12.1752 21.2643 21.4024 26.8717 27.0098C30.9797 31.1179 37.0296 31.9795 40.125 32.1381V47.7781C40.7458 47.7083 41.3718 47.6723 41.9999 47.6723C42.6282 47.6723 43.254 47.7085 43.8749 47.7781ZM57.0619 58.9534C56.061 58.9529 55.0665 59.1125 54.116 59.426C53.2689 57.4478 51.9384 55.6827 50.2454 54.3221C47.9187 52.4521 44.9904 51.4223 41.9999 51.4223C39.0096 51.4223 36.0813 52.4521 33.7544 54.3221C32.0615 55.6827 30.731 57.4478 29.8839 59.426C28.9334 59.1125 27.9388 58.9529 26.9379 58.9534C21.7515 58.9534 17.532 63.1729 17.532 68.3595V72.125C17.532 73.1605 18.3715 74 19.4069 74H64.5928C65.6283 74 66.4677 73.1605 66.4677 72.125V68.3595C66.4679 63.1729 62.2484 58.9534 57.0619 58.9534Z" fill="white"/>
</svg>
