<svg width="84" height="84" viewBox="0 0 84 84" fill="none" xmlns="http://www.w3.org/2000/svg">
<g clip-path="url(#clip0_275_2941)">
<path d="M24.875 24.375C25.375 24.375 25.625 24.875 25.5 25.25L22.5 49.125C22.5 49.5 22.125 49.75 21.625 49.75C20.75 49.625 10.625 48.375 10.625 48.375C10.25 48.25 10 47.875 10 47.5C10.25 45.5 13 23.625 13 23.625C13.125 23.25 13.5 22.875 13.875 23L24.875 24.375Z" fill="white"/>
<path d="M24.5 28.125C24 28.125 23.75 28.375 23.75 28.875V29L18 34.875V35L21.5 45.625C21.375 45.875 21.375 46.25 21.5 46.5C23.75 49.25 27 51.625 30.5 54.125C33.375 56.25 36.25 58.5 38.75 61H38.875C39.5 61.625 40.375 62 41.375 62C42.25 62 43.125 61.625 43.75 61C44.375 60.5 44.625 59.75 44.75 59.125L46.625 61C47.25 61.625 48.25 62 49.125 62C50 62 50.875 61.625 51.625 61C52.125 60.5 52.375 59.75 52.5 59.125L52.625 59.25C53.375 59.875 54.25 60.25 55.125 60.25C56 60.25 56.875 59.875 57.625 59.25C58.125 58.75 58.5 58 58.625 57.375V57.5C59.375 58.125 60.25 58.5 61.125 58.5C62 58.5 63 58.125 63.625 57.5C64.25 56.75 64.625 55.875 64.625 55C64.625 54.125 64.375 53.25 63.625 52.5L61 49.875L60.625 50.375C59.75 51.25 58.25 51.375 57.375 50.5C57.25 50.375 57.125 50.25 57.125 50.125L47 40.125C46.125 39.25 44.125 37.25 42.75 37.25C41.375 37.375 39.5 39.5 38.75 40.5C37.75 41.75 36 42 34.375 41.625C33.625 41.5 33 41.25 32.375 40.875C31.625 40.375 31 39.75 30.625 39C29.75 37.625 29.75 36 30.25 34.5V34.375L30.625 33.625C30.625 33.625 30.75 33.625 30.75 33.5C32 31.375 33.625 29.5 35.5 28.125H24.5ZM54.875 25.625L65.25 22H65.375C65.75 21.875 66.125 22.125 66.25 22.5L74 45.25V45.375C74.125 45.75 73.875 46.125 73.5 46.25L63 49.75C62.625 49.875 62.125 49.75 62 49.375L54.375 26.625V26.5C54.25 26.125 54.5 25.75 54.875 25.625Z" fill="white"/>
<path d="M62.25 46.375C62.25 46.75 56.75 30 56.75 29.875H56.625C47.5 26.75 37.75 23.375 32 34.25V34.375C31.125 36 31.25 37.25 31.875 38.25C32.25 38.75 32.625 39.25 33.125 39.5C33.625 39.875 34.25 40.125 34.75 40.25C35.875 40.5 37 40.25 37.625 39.5C39.625 37 41.125 35.875 42.625 35.75C44.25 35.75 45.875 36.875 48.125 39.125L58.25 49.25L58.375 49.375C58.75 49.625 59.25 49.625 59.5 49.375L62.25 46.375Z" fill="white"/>
</g>
<defs>
<clipPath id="clip0_275_2941">
<rect width="64" height="64" fill="white" transform="translate(10 10)"/>
</clipPath>
</defs>
</svg>
