<svg width="84" height="84" viewBox="0 0 84 84" fill="none" xmlns="http://www.w3.org/2000/svg">
<path d="M42.0126 10C42.6251 10 43.2126 10.2875 43.5876 10.775L65.2251 38.5625C65.7001 39.175 65.7876 39.9875 65.4501 40.675C65.1126 41.3625 64.4126 41.8 63.6501 41.8H49.4001V72C49.4001 73.1 48.5001 74 47.4001 74H36.6001C35.5001 74 34.6001 73.1 34.6001 72V41.8125H20.3501C19.5876 41.8125 18.8751 41.375 18.5501 40.6875C18.2251 40 18.3001 39.175 18.7751 38.575L40.4376 10.775C40.8126 10.2875 41.4001 10 42.0126 10Z" fill="white"/>
</svg>
