<svg width="51" height="52" viewBox="0 0 51 52" fill="none" xmlns="http://www.w3.org/2000/svg">
<g id="Frame" clip-path="url(#clip0_574_297)">
<g id="Group">
<path id="Vector" d="M9.52219 10.8306C12.3749 10.8306 14.6875 8.51804 14.6875 5.66531C14.6875 2.81259 12.3749 0.5 9.52219 0.5C6.66946 0.5 4.35687 2.81259 4.35687 5.66531C4.35687 8.51804 6.66946 10.8306 9.52219 10.8306Z" fill="white"/>
<path id="Vector_2" d="M45.8928 27.2608C43.8093 25.7246 41.5376 24.5059 39.089 23.6706C38.271 23.3913 37.4114 23.3991 36.6863 23.7123C36.4755 23.6708 36.261 23.6504 36.0462 23.6515C33.5437 23.662 31.1046 24.2743 28.8702 25.343C28.6917 24.948 28.4753 24.5712 28.224 24.218L25.287 20.1031C27.7608 18.2512 29.6795 15.7687 30.9051 12.7944C32.3589 9.26413 26.7902 7.30036 25.3469 10.8038C24.568 12.6929 23.3632 14.1571 21.8522 15.2908L20.2475 13.0425C23.3701 10.7274 26.3158 8.20591 29.0134 5.37301C31.5609 2.70058 27.1155 -0.908634 24.5801 1.75165C21.2094 5.29061 17.3469 8.2302 13.2936 10.9399C12.984 11.1047 12.6925 11.2982 12.4349 11.5228C10.2283 13.4458 10.3514 16.3759 11.9414 18.6033L20.6526 30.8049C21.1565 31.5101 21.8626 31.9846 22.651 32.2517C26.5933 36.6069 28.0627 41.5987 27.7669 47.8335C27.5856 51.6327 33.4796 51.9753 33.6608 48.1727C33.9558 41.9509 32.744 36.3528 29.5806 31.5379C31.6702 30.1049 33.9549 29.3651 36.551 29.3538C36.8804 29.351 37.207 29.2918 37.5164 29.1786C39.239 29.8308 40.8506 30.6427 42.2732 31.6931C43.5248 32.6143 45.2778 32.5423 46.3005 31.2855C47.2459 30.1249 47.1514 28.1871 45.8928 27.2608ZM13.5781 49.433C11.7505 49.0713 9.94116 48.6194 8.20551 48.0053C7.34419 47.6861 6.49414 47.3296 5.73344 46.8386C4.98315 46.3573 4.26061 45.7258 4.08887 44.7604C4.0108 45.2383 4.13224 45.7553 4.37164 46.2003C4.6067 46.6522 4.94672 47.0329 5.30408 47.3816C6.04223 48.0608 6.89141 48.5873 7.77008 49.0184C9.53175 49.891 11.4114 50.421 13.2971 50.8226C15.1906 51.1947 17.1049 51.4219 19.0245 51.4792C20.9414 51.5425 22.861 51.4679 24.7605 51.1721C22.8627 50.8746 20.9865 50.6448 19.1225 50.3741C17.2585 50.0966 15.4049 49.8147 13.5781 49.433ZM18.9351 45.8923C17.8431 45.6659 16.758 45.4335 15.7154 45.103C15.1984 44.9321 14.6823 44.7491 14.2183 44.4898C13.7551 44.2356 13.3075 43.9173 13.1375 43.3413C12.9736 43.9511 13.3682 44.5964 13.788 45.0353C14.2262 45.471 14.7291 45.8362 15.2791 46.1178C16.3512 46.686 17.497 47.0477 18.6532 47.2854C19.8103 47.5239 20.9848 47.6254 22.154 47.6254C23.3241 47.6245 24.496 47.5169 25.6453 47.2212C24.4969 46.9254 23.371 46.725 22.2512 46.5195L18.9351 45.8923Z" fill="white"/>
</g>
</g>
<defs>
<clipPath id="clip0_574_297">
<rect width="51" height="51" fill="white" transform="translate(0 0.5)"/>
</clipPath>
</defs>
</svg>
