<svg width="51" height="33" viewBox="0 0 51 33" fill="none" xmlns="http://www.w3.org/2000/svg">
<g id="Group">
<path id="Vector" d="M25.5002 4.29169C18.7804 4.29169 13.3332 9.73898 13.3332 16.4588C13.3332 23.1785 18.7803 28.6256 25.5002 28.6256C32.2194 28.6256 37.667 23.178 37.667 16.4588C37.6595 9.74205 32.2163 4.2992 25.5002 4.29169ZM33.5946 12.9607C33.1122 17.0385 31.7479 20.9624 29.5966 24.4599C29.4808 24.6479 29.3128 24.798 29.1131 24.892C28.9134 24.986 28.6906 25.0196 28.472 24.9889C28.2534 24.958 28.0487 24.864 27.8828 24.7184C27.7169 24.5728 27.5971 24.3819 27.5381 24.1692L27.2367 23.0825C26.9181 21.9342 26.2954 20.8932 25.4343 20.0694L25.4032 20.0391L25.389 20.0542C24.6018 20.8745 24.0389 21.8835 23.7542 22.9842L23.4581 24.1337C23.4025 24.3492 23.2848 24.5435 23.1195 24.6925C22.9543 24.8415 22.7488 24.9386 22.5288 24.9716C22.3087 25.0047 22.0838 24.9722 21.8821 24.8783C21.6803 24.7844 21.5107 24.6332 21.3943 24.4436C19.2491 20.9515 17.8884 17.035 17.4065 12.9651C17.3348 12.2989 17.4108 11.6251 17.6292 10.9917C17.8476 10.3582 18.203 9.78074 18.6701 9.30033C19.1371 8.81981 19.7043 8.44816 20.3312 8.21183C20.9582 7.97551 21.6296 7.88032 22.2976 7.93304C22.7994 7.97264 23.1804 8.22457 23.5834 8.49038C23.8104 8.64622 24.0469 8.78786 24.2915 8.91447C25.1952 8.68507 27.9999 7.98504 28.7346 7.93031C29.4003 7.88102 30.0687 7.97876 30.6924 8.21659C31.3161 8.45443 31.8799 8.82654 32.3438 9.30656C32.8076 9.78657 33.1602 10.3627 33.3766 10.9942C33.5929 11.6257 33.6677 12.2971 33.5957 12.9607H33.5946Z" fill="white"/>
<path id="Vector_2" d="M28.8534 9.51901C28.7583 9.52618 28.5946 9.55235 28.3843 9.59286C28.4763 9.70256 28.5369 9.83505 28.5599 9.97634C28.5828 10.1176 28.5672 10.2625 28.5146 10.3956C28.4622 10.5288 28.3749 10.6453 28.2619 10.733C28.1488 10.8208 28.0143 10.8765 27.8723 10.8943C24.8956 11.2668 23.5248 10.3609 22.7065 9.81998C22.5097 9.68969 22.2647 9.528 22.1731 9.52083C21.7389 9.48658 21.3025 9.5484 20.8948 9.7019C20.4872 9.85539 20.1184 10.0968 19.8147 10.409C19.5108 10.721 19.2794 11.0962 19.1369 11.5078C18.9945 11.9194 18.9446 12.3574 18.9906 12.7906C19.4008 16.2579 20.4896 19.6105 22.1949 22.6572L22.2127 22.5866C22.566 21.2209 23.2642 19.9689 24.2404 18.9506L24.3392 18.8484C24.9014 18.2644 25.8299 18.2448 26.4166 18.8044L26.5362 18.9191C27.6045 19.9412 28.377 21.2329 28.772 22.6576L28.7835 22.6998C30.5025 19.6408 31.5997 16.272 32.0118 12.7874C32.0582 12.3562 32.0093 11.9202 31.8686 11.51C31.7279 11.0999 31.4988 10.7256 31.1975 10.4137C30.8961 10.102 30.5299 9.86028 30.1247 9.70575C29.7196 9.55121 29.2854 9.48762 28.8529 9.51947L28.8534 9.51901Z" fill="white"/>
<path id="Vector_3" d="M43.6736 8.42024C39.4125 4.59727 32.801 0.0408325 25.5002 0.0408325C18.1989 0.0408325 11.5872 4.59762 7.3264 8.42024C4.62814 10.8546 2.17433 13.547 0 16.4588C2.17439 19.3706 4.62836 22.0628 7.32686 24.4969C11.5878 28.3204 18.1995 32.8769 25.5006 32.8769C32.8013 32.8769 39.4131 28.32 43.6739 24.4969C46.3723 22.0629 48.826 19.3707 51 16.4588C48.8257 13.547 46.3719 10.8546 43.6736 8.42024ZM25.5003 30.2187C17.9008 30.2184 11.7403 24.0582 11.7403 16.4588C11.7403 8.85946 17.9008 2.69871 25.5003 2.69871C33.0997 2.69871 39.2602 8.85923 39.2602 16.4587C39.2513 24.0546 33.096 30.2098 25.5003 30.2186V30.2187Z" fill="white"/>
</g>
</svg>
