<svg width="51" height="52" viewBox="0 0 51 52" fill="none" xmlns="http://www.w3.org/2000/svg">
<g id="Group">
<path id="Vector" d="M25.4994 13.2503C29.0201 13.2503 31.8742 10.3962 31.8742 6.87545C31.8742 3.35472 29.0201 0.50061 25.4994 0.50061C21.9787 0.50061 19.1245 3.35472 19.1245 6.87545C19.1245 10.3962 21.9787 13.2503 25.4994 13.2503Z" fill="white"/>
<path id="Vector_2" d="M35.0488 30.5772L33.6017 19.3064C33.5254 18.5197 33.1584 17.7897 32.5725 17.2592C31.9865 16.7287 31.2238 16.4358 30.4334 16.4378H28.6867C28.2628 16.4378 27.858 16.6067 27.5583 16.9031L25.4993 18.9622L23.4402 16.9031C23.14 16.6055 22.7346 16.4382 22.3118 16.4378H20.5683C18.9236 16.4378 17.5594 17.6713 17.4 19.265L15.9497 30.5803C15.8924 31.033 16.0326 31.4919 16.3354 31.833C16.4846 32.0032 16.6684 32.1396 16.8745 32.233C17.0807 32.3265 17.3044 32.3748 17.5307 32.3749H19.2519L20.5842 48.6307C20.7436 50.2627 22.111 51.4994 23.7557 51.4994H27.246C28.8907 51.4994 30.2549 50.2627 30.4206 48.602L31.7498 32.3749H33.4678C33.9268 32.3749 34.3603 32.1772 34.6631 31.833C34.8143 31.664 34.927 31.4642 34.9936 31.2474C35.0602 31.0306 35.079 30.8019 35.0488 30.5772Z" fill="white"/>
<path id="Vector_3" d="M41.4365 13.2503C44.9572 13.2503 47.8113 10.3962 47.8113 6.87545C47.8113 3.35472 44.9572 0.50061 41.4365 0.50061C37.9158 0.50061 35.0616 3.35472 35.0616 6.87545C35.0616 10.3962 37.9158 13.2503 41.4365 13.2503Z" fill="white"/>
<path id="Vector_4" d="M9.56222 0.50061C6.04649 0.50061 3.18738 3.35973 3.18738 6.87545C3.18738 10.3912 6.04649 13.2503 9.56222 13.2503C13.0748 13.2503 15.9371 10.3912 15.9371 6.87545C15.9371 3.35973 13.0748 0.50061 9.56222 0.50061ZM50.986 30.5771L49.5389 19.3096C49.3763 17.6712 48.0153 16.4377 46.3706 16.4377H44.6239C44.2 16.4377 43.7952 16.6066 43.4955 16.9031L41.4365 18.9622L39.3774 16.9031C39.0778 16.6066 38.673 16.4377 38.2522 16.4377H36.5055C36.3079 16.4377 36.1294 16.5078 35.9413 16.5429C36.3525 17.2696 36.6744 18.0569 36.7701 18.9398L38.214 30.1723C38.3925 31.5397 37.9654 32.9167 37.0474 33.9526C36.6139 34.4498 36.0593 34.8004 35.4664 35.0746L36.5246 45.4432C36.6872 47.0784 38.0514 48.3119 39.6961 48.3119H43.1864C44.8311 48.3119 46.1953 47.0752 46.361 45.4146L47.687 32.3748H49.405C49.864 32.3748 50.2975 32.1772 50.6003 31.833C50.7515 31.6639 50.8643 31.4641 50.9308 31.2473C50.9974 31.0305 51.0162 30.8019 50.986 30.5771ZM13.9417 33.9367C13.0365 32.9135 12.6158 31.5397 12.7879 30.1787L14.2382 18.8602C14.321 18.0123 14.6334 17.2473 15.0318 16.5397C14.8533 16.5078 14.6844 16.4377 14.4964 16.4377H12.7496C12.3257 16.4377 11.9209 16.6066 11.6213 16.9031L9.56222 18.9622L7.50315 16.9031C7.20353 16.6066 6.79873 16.4377 6.37799 16.4377H4.63118C2.98647 16.4377 1.62225 17.6712 1.46288 19.265L0.012602 30.5803C-0.0447716 31.0329 0.095475 31.4919 0.39828 31.833C0.547668 32.0029 0.731513 32.1391 0.937598 32.2325C1.14368 32.326 1.36729 32.3745 1.59356 32.3748H3.31477L4.64712 45.4432C4.80649 47.0752 6.17389 48.3119 7.8186 48.3119H11.3088C12.9535 48.3119 14.3178 47.0752 14.4835 45.4146L15.5417 35.0714C14.9458 34.7941 14.388 34.4403 13.9417 33.9367Z" fill="white"/>
</g>
</svg>
