<svg width="93" height="52" viewBox="0 0 93 52" fill="none" xmlns="http://www.w3.org/2000/svg">
<path d="M10.6939 9.08568C13.0648 9.08568 14.9867 7.16373 14.9867 4.79287C14.9867 2.42202 13.0648 0.500061 10.6939 0.500061C8.32308 0.500061 6.40112 2.42202 6.40112 4.79287C6.40112 7.16373 8.32308 9.08568 10.6939 9.08568Z" fill="white"/>
<path d="M12.1888 11.1325C11.104 10.9132 9.98486 10.9268 8.90565 11.1725C1.76874 12.0088 -0.548636 20.2696 0.105715 26.5683C0.389553 29.2915 4.68236 29.32 4.39567 26.5683C4.15755 24.2729 4.25947 20.8087 5.47959 18.3465V27.3236C5.47959 27.4294 5.49007 27.5284 5.49483 27.6303C5.49197 27.6789 5.48054 27.7199 5.48054 27.7694C5.48054 34.893 5.46816 42.0137 5.17384 49.1315C5.04335 52.2957 9.94956 52.2833 10.0791 49.1315C10.3096 43.5529 10.3677 37.9714 10.381 32.3889C10.6134 32.4041 10.8458 32.4041 11.0782 32.3908C11.0925 37.9733 11.1487 43.5548 11.3773 49.1315C11.5078 52.2833 16.414 52.2957 16.2826 49.1315C15.9883 42.0137 15.9778 34.893 15.9778 27.7694C15.9778 27.5484 15.9483 27.3474 15.9035 27.1541C15.8968 24.0614 15.7787 20.9659 15.8149 17.8751C17.276 20.3487 17.4094 24.1214 17.156 26.5664C16.8684 29.3162 21.1621 29.2886 21.446 26.5664C22.1155 20.1372 19.6867 11.6621 12.1888 11.1325Z" fill="white"/>
<path d="M76.8739 38.8437C76.8739 39.0823 76.7148 39.321 76.5556 39.4801L77.7489 48.5489C77.908 49.5831 77.3512 50.6172 76.5556 51.1741C76.7943 51.4128 78.8626 51.0946 79.1013 49.1853L80.4537 38.0482C79.2604 37.9686 78.1467 37.8095 77.033 37.4913L76.8739 38.8437ZM86.9768 37.0936C85.5449 37.5709 84.0335 37.8891 82.522 37.9686L83.8743 49.1058C84.2721 52.1287 88.727 51.4923 88.4088 48.5489L86.9768 37.0936Z" fill="white"/>
<path d="M52.6907 9.25068C55.1071 9.25068 57.066 7.29179 57.066 4.87537C57.066 2.45895 55.1071 0.500061 52.6907 0.500061C50.2742 0.500061 48.3154 2.45895 48.3154 4.87537C48.3154 7.29179 50.2742 9.25068 52.6907 9.25068Z" fill="white"/>
<path d="M57.9412 41.628C57.2252 41.3098 56.7479 40.9916 56.5093 40.8325L57.623 35.2639C56.1115 36.4572 53.9636 34.7071 54.8387 32.8774C54.8387 32.7978 58.1003 26.2746 57.8616 26.6724C58.1003 26.2746 58.4185 25.8769 58.8958 25.7178C58.9753 24.5245 59.3731 19.2742 59.3731 19.6719C59.4526 20.0697 59.6117 20.3879 59.6913 20.7856C60.2482 19.831 61.2823 19.1946 62.396 19.1946C61.8392 17.2058 61.1232 15.2966 60.2482 13.3078C58.1003 8.61431 46.3267 9.64847 44.7357 13.3874C42.8265 17.8422 41.7923 22.138 41.5537 26.2746C41.4741 28.2634 44.497 28.4225 44.5766 26.4337C44.6561 24.2063 45.1335 21.8993 45.7699 19.5128L46.8836 34.1502C46.8836 34.3889 47.1222 34.548 47.3609 34.6275L45.6903 48.6285C45.3721 51.5719 49.827 52.2083 50.2247 49.1854L51.8953 34.6275H53.1681L54.9182 49.1058C55.1569 50.9355 57.3843 51.731 58.6571 50.5377C58.1798 50.14 57.8616 49.5036 57.8616 48.8671V41.628H57.9412ZM89.4434 23.3313C89.2047 21.2629 88.2501 19.0355 87.2955 17.2058V20.3083L90.1594 34.7866C86.1818 37.1731 81.5678 37.8891 77.0334 36.6163C77.113 35.6617 76.7948 40.1165 77.7494 27.2293C79.4995 26.2746 81.4087 24.445 81.8065 20.7061C81.886 19.4333 81.011 18.3195 79.7382 18.24C78.4654 18.1604 77.3516 19.0355 77.2721 20.3083C77.1925 21.5811 76.7948 22.2971 76.3175 22.7744C75.9993 22.6153 75.6015 22.4562 75.2833 22.2971L75.6015 20.6265C76.8743 18.5582 76.0788 15.8535 73.9309 14.8193C75.9197 10.9213 75.4424 11.3986 76.2379 10.9213C79.42 9.33027 82.602 9.09161 85.9431 10.5235C88.9661 11.7964 92.0686 19.5924 92.5459 22.8539C92.705 24.9223 89.7616 25.3996 89.4434 23.3313Z" fill="white"/>
<path d="M81.3286 9.25068C83.7151 9.25068 85.7039 7.34145 85.7039 4.87537C85.7039 2.48884 83.7151 0.500061 81.3286 0.500061C78.942 0.500061 76.9532 2.48884 76.9532 4.87537C77.0328 7.34145 78.942 9.25068 81.3286 9.25068ZM72.1006 21.8993C74.0099 21.8993 75.3622 20.3083 75.3622 18.5582C75.3622 17.2853 74.5667 16.0921 73.453 15.5352C73.0552 15.3761 72.5779 15.217 72.1006 15.217C70.271 15.217 68.839 16.6489 68.839 18.4786C68.839 20.3878 70.3505 21.8993 72.1006 21.8993Z" fill="white"/>
<path d="M77.0339 48.6284L75.8406 39.7982L75.761 39.0823C75.9201 39.0823 76.0792 38.9232 76.0792 38.7641C76.7952 30.3317 77.0339 26.7519 77.0339 26.8314C79.5795 25.7177 80.7728 23.4903 81.0114 20.706C81.091 19.9105 80.4545 19.115 79.659 19.0354C78.8635 18.9559 78.068 19.5923 77.9885 20.3878C77.9089 21.7401 77.4316 23.013 76.3179 23.7289C75.3633 23.1721 74.0905 22.6948 72.9767 22.5357C72.8972 22.4561 72.2608 22.8539 71.0675 22.5357C70.9084 22.5357 69.7947 22.6152 68.5219 23.3312C67.5673 23.8085 66.1354 24.8426 66.2945 25.7973C66.6922 25.9564 67.0104 26.2746 67.1695 26.6723C67.1695 26.7519 70.4311 33.2751 70.1925 32.8773C70.9084 34.4683 69.3969 36.1389 67.8059 35.4229C67.8059 35.5025 68.0446 38.9232 68.0446 38.6845C68.0446 38.8436 68.2037 39.0027 68.3628 39.0027C66.9309 49.4239 67.09 48.5489 67.09 48.5489C66.7718 51.0149 70.5107 51.5718 70.8289 49.0262L71.6244 43.1394L72.0221 46.0032L72.4199 49.1853C72.6585 51.0945 74.886 52.0491 76.3974 51.0945C75.9997 51.0149 75.6815 50.9354 75.3633 50.6967C76.5565 50.5376 77.193 49.583 77.0339 48.6284ZM58.578 41.9461L58.6576 42.4234V48.8671C58.6576 50.8558 61.6805 50.8558 61.6805 48.8671V42.6621C60.6463 42.5825 59.6122 42.3439 58.578 41.9461C58.6576 41.9461 58.6576 41.9461 58.578 41.9461Z" fill="white"/>
<path d="M66.6916 50.0604C67.2485 49.1854 66.9303 48.549 67.0098 44.1737L66.453 48.549C66.3734 49.0263 66.5325 49.5831 66.6916 50.0604ZM63.2709 48.8672C63.2709 50.856 66.2939 50.856 66.2939 48.8672V41.9462C65.3392 42.344 64.3051 42.5826 63.2709 42.6622V48.8672ZM59.8502 22.5358C59.8502 25.9565 65.1006 25.9565 65.1006 22.5358C65.1006 21.1039 63.9073 19.9106 62.4754 19.9106C61.0435 19.9106 59.8502 21.1039 59.8502 22.5358Z" fill="white"/>
<path d="M67.6468 40.5143C67.6468 40.4347 65.8171 31.2864 65.9762 31.8432V30.8886C65.9762 30.9682 67.6468 34.3093 67.6468 34.2298C68.2832 35.5821 70.3515 34.6275 69.7151 33.1956C66.4535 26.5929 66.9308 26.5929 64.7034 25.8769C64.3852 25.7973 64.1465 25.7178 63.8283 25.6382C63.1919 25.9564 62.1578 25.9564 61.3623 25.6382C60.7258 25.7973 59.8508 26.036 59.1348 26.4338C58.9757 26.5133 58.7371 26.6724 58.6575 26.9111C53.4071 37.5709 58.9757 26.2747 55.6346 33.116C55.3959 33.5934 55.555 34.1502 55.9528 34.4684C56.4301 34.9457 57.3847 34.7071 57.7029 34.0707C58.0211 33.3547 59.2939 30.8091 59.2144 30.9682V31.6841C57.7825 38.9233 57.4643 40.4347 57.5438 40.3552C60.8054 42.5031 64.4647 42.4235 67.6468 40.5143Z" fill="white"/>
</svg>
