<svg width="125" height="86" viewBox="0 0 125 86" fill="none" xmlns="http://www.w3.org/2000/svg">
<g id="Group 9607" clip-path="url(#clip0_574_173)">
<path id="Vector" d="M48.2914 0.681952C48.2411 0.808237 48.1657 9.72396 48.1407 20.5087C48.1154 38.5168 48.1407 40.1334 48.5176 40.2092C48.7437 40.2595 50.2764 40.2595 51.9097 40.2092L54.8996 40.1334V20.3066V0.505154H51.6583C49.8491 0.505154 48.3415 0.580925 48.2914 0.681952Z" fill="white"/>
<path id="Vector_2" d="M71.08 6.36477C60.376 17.2505 57.2854 20.4582 57.2101 20.8622C57.0845 21.3926 57.763 22.2261 63.3912 28.4899C66.1049 31.5207 69.5976 35.385 71.1052 37.0772L73.869 40.1586H77.7386H81.6081L81.1307 39.5776C80.8543 39.2745 79.9497 38.2138 79.1456 37.2541C77.6633 35.486 74.0198 31.4198 71.5826 28.793C68.1654 25.1308 64.1953 20.5845 64.1953 20.3318C64.1703 20.2057 68.6177 15.6846 74.045 10.3049L83.9198 0.53041L80.402 0.505154H76.8592L71.08 6.36477Z" fill="white"/>
<path id="Vector_3" d="M43.1901 52.585C42.9139 53.0397 42.0344 54.8328 41.2302 56.5755C40.4011 58.3182 39.6473 59.859 39.5468 60.0106C39.0442 60.6419 34.7979 69.4819 34.7979 69.8608C34.7979 70.2143 34.9737 70.2397 35.7528 70.1133C36.2552 70.0375 36.9085 69.9618 37.21 69.9618C37.5869 69.9618 37.9135 69.5829 38.4412 68.4715C39.2956 66.6784 39.2704 66.6784 44.2454 66.6784H47.8637L48.6678 68.32L49.4719 69.9618H50.8287C52.0849 69.9618 52.1603 69.9366 52.0096 69.4314C51.6327 68.2696 44.3208 52.3829 43.9942 52.0798C43.7178 51.8019 43.5923 51.8777 43.1901 52.585ZM46.1552 63.3949L46.2306 64.0264L43.542 64.1022C41.3056 64.1526 40.8283 64.1022 40.8283 63.7991C40.8283 63.2939 41.7078 61.2733 42.7882 59.3538L43.6927 57.7121L44.8988 60.2379C45.5522 61.6522 46.1299 63.0666 46.1552 63.3949Z" fill="white"/>
<path id="Vector_4" d="M62.8394 52.1808C62.6133 52.7869 62.6636 69.9112 62.8897 70.0627C63.0154 70.1385 63.6435 70.1133 64.347 70.0121L65.5783 69.8354L65.6537 64.2032C65.6788 61.1218 65.7792 58.5961 65.8546 58.5961C65.93 58.5961 67.5883 60.2631 69.5482 62.3089C71.5081 64.3799 73.9956 66.9561 75.1263 68.0675L77.1365 70.0879L77.2119 61.3996C77.2622 54.6054 77.1868 52.6606 76.9607 52.4839C76.7847 52.3829 76.1315 52.3071 75.5032 52.3323L74.3725 52.4081L74.2971 57.5099C74.2721 60.3388 74.1464 62.6372 74.0209 62.6372C73.9202 62.6372 71.483 60.1873 68.6186 57.2069C65.7542 54.2266 63.3169 51.7767 63.1912 51.7767C63.0908 51.7767 62.9148 51.9535 62.8394 52.1808Z" fill="white"/>
<path id="Vector_5" d="M7.63586 56.323C5.80162 58.5455 4.21864 60.364 4.093 60.364C3.9925 60.364 3.892 58.5961 3.892 56.4492V52.5091L2.33415 52.5848L0.751169 52.6606L0.675789 60.8693C0.650662 65.3901 0.675789 69.3302 0.751169 69.6587C0.876802 70.1891 1.02756 70.2395 2.13314 70.1891C2.81155 70.1385 3.5151 70.0375 3.66586 69.9364C3.892 69.8102 3.91712 69.0525 3.81662 67.335L3.69098 64.8851L4.4699 63.8495C4.92218 63.2685 5.3996 62.7635 5.57548 62.7129C5.72624 62.6624 7.13334 64.2536 8.66606 66.2742L11.4802 69.9618H13.1135C14.5708 69.9618 14.6965 69.9112 14.4703 69.5071C14.3447 69.2798 12.7617 67.2844 10.9526 65.087C9.14346 62.8897 7.661 60.9702 7.661 60.8187C7.661 60.4904 9.14346 58.6971 12.3848 55.1359C13.6411 53.7468 14.6965 52.5091 14.6965 52.4333C14.6965 52.3575 13.8673 52.2818 12.8371 52.2818H10.9777L7.63586 56.323Z" fill="white"/>
<path id="Vector_6" d="M18.7667 52.787C18.44 53.671 18.3898 69.886 18.6913 70.0879C18.8672 70.1891 19.5455 70.1891 20.2239 70.0879L21.4803 69.9112V66.5267V63.1424H23.3398C25.0735 63.1424 25.2242 63.1928 25.375 63.698C25.4755 64.0262 26.2543 65.567 27.0835 67.1077L28.6163 69.9618H30.1993C31.0786 69.9618 31.7823 69.886 31.7823 69.7596C31.7823 69.6587 31.0033 68.0675 30.0736 66.249L28.3399 62.8897L29.5963 61.8543C31.2546 60.4146 31.7823 59.5054 31.7823 57.9646C31.7823 56.0199 31.33 54.7822 30.2495 53.7468C28.9932 52.5345 27.7118 52.2818 22.8372 52.2818C19.1938 52.2818 18.9426 52.3071 18.7667 52.787ZM28.0634 55.4895C28.8676 56.2218 29.1188 57.5099 28.6665 58.6719C28.0887 60.1873 27.561 60.4398 24.4704 60.5662C21.8322 60.6671 21.8069 60.6671 21.6561 60.0862C21.3799 59.1265 21.4553 55.1107 21.7315 55.0095C21.8572 54.9591 23.2391 54.9591 24.797 55.0095C26.9327 55.0853 27.7369 55.1864 28.0634 55.4895Z" fill="white"/>
<path id="Vector_7" d="M54.7223 52.4335C54.2449 52.6356 54.2449 69.8608 54.7223 70.0375C54.8981 70.1133 55.5765 70.1133 56.2299 70.0375L57.4109 69.886L57.3606 61.1471L57.2852 52.4083L56.1545 52.3577C55.5264 52.3325 54.873 52.3577 54.7223 52.4335Z" fill="white"/>
<path id="Vector_8" d="M82.7141 52.4587C82.4125 52.7366 82.5132 69.9112 82.7894 70.0881C82.9402 70.1891 83.6689 70.1639 84.4227 70.0881L85.8046 69.9112V61.2481C85.8046 53.5952 85.7545 52.5596 85.4027 52.4335C84.875 52.2314 82.9151 52.2314 82.7141 52.4587Z" fill="white"/>
<path id="Vector_9" d="M90.579 53.671V55.0603H93.2173H95.8556L95.9059 62.41C95.9813 70.7449 95.9059 70.4164 97.9412 70.1133L99.122 69.9366V62.4858V55.0603H101.886H104.65V53.671V52.2819H97.6144H90.579V53.671Z" fill="white"/>
<path id="Vector_10" d="M106.911 52.4335C106.911 52.5344 107.966 54.1004 109.273 55.9189C110.579 57.7374 112.087 59.96 112.665 60.8693L113.695 62.511V65.9711C113.695 67.8654 113.77 69.5829 113.846 69.8102C113.997 70.2396 115.303 70.3406 116.409 70.0627C116.961 69.9112 116.961 69.8354 116.961 66.2742V62.6626L120.002 58.293C121.685 55.8936 123.344 53.57 123.696 53.1658L124.324 52.4081L122.515 52.3323C121.459 52.2819 120.555 52.3829 120.354 52.5344C120.178 52.686 118.997 54.3529 117.715 56.222C115.655 59.2529 115.378 59.5811 115.102 59.1771C114.926 58.9244 113.946 57.3838 112.916 55.7168C111.76 53.8731 110.831 52.6354 110.479 52.5093C109.8 52.2566 106.911 52.2062 106.911 52.4335Z" fill="white"/>
<path id="Vector_11" d="M8.59077 79.711C8.49027 79.812 8.41489 81.2012 8.41489 82.767C8.41489 84.9644 8.49027 85.6463 8.74153 85.5705C8.94255 85.4948 9.06819 84.6867 9.11843 83.0449C9.19381 80.7466 8.96767 79.3321 8.59077 79.711Z" fill="white"/>
<path id="Vector_12" d="M11.1783 82.5651C11.1783 84.9392 11.2537 85.6463 11.505 85.5706C11.706 85.4948 11.8316 84.7877 11.8819 83.5248C11.9321 82.464 12.0578 81.5801 12.1834 81.5801C12.2839 81.5801 12.7613 82.0599 13.2136 82.6409C14.294 84.0552 15.7514 85.6212 16.0027 85.6212C16.3042 85.6212 16.2539 79.8626 15.9273 79.6858C15.5253 79.4331 15.5001 79.5343 15.4247 81.6559C15.3745 82.7419 15.274 83.6763 15.1986 83.7269C15.1232 83.7775 14.4951 83.1459 13.8418 82.3378C13.1633 81.5043 12.2839 80.5193 11.8819 80.1405L11.1783 79.4585V82.5651Z" fill="white"/>
<path id="Vector_13" d="M18.7169 80.0645C17.6867 81.1001 18.2144 82.2367 20.0486 82.8428C21.1793 83.1963 21.6316 83.8782 21.2044 84.6359C20.9783 85.0906 20.7774 85.1411 20.0236 85.0148C19.4959 84.939 18.9682 84.7117 18.8174 84.5098C18.6667 84.2825 18.4405 84.2319 18.2144 84.3582C17.6867 84.6865 18.3149 85.3179 19.4959 85.621C20.6767 85.9494 21.6819 85.5706 22.1593 84.6359C22.712 83.4994 21.707 82.3882 19.521 81.7063C19.119 81.5799 18.9682 81.3778 19.0184 80.9989C19.119 80.3424 20.0737 80.0645 21.0536 80.3928C21.8828 80.6707 22.1843 80.4685 21.7321 79.9381C21.2547 79.3574 19.3451 79.4331 18.7169 80.0645Z" fill="white"/>
<path id="Vector_14" d="M24.1437 79.7362C24.0683 79.812 23.9929 80.8728 23.9929 82.0851C23.9929 84.6107 24.3949 85.4442 25.7517 85.7221C27.7116 86.101 28.8423 84.4844 28.7168 81.5041C28.6162 79.0289 28.1639 79.3068 27.9881 81.9587C27.8122 84.3076 27.4101 85.1159 26.3297 85.1159C25.1487 85.1159 24.7467 84.3076 24.7467 81.9839C24.7467 80.0139 24.5709 79.332 24.1437 79.7362Z" fill="white"/>
<path id="Vector_15" d="M30.9782 79.711C30.8525 79.812 30.7771 81.1758 30.7771 82.767C30.7771 85.1413 30.8525 85.6211 31.154 85.6211C31.4305 85.6211 31.5309 85.318 31.5309 84.4846C31.5309 83.449 31.5812 83.348 32.134 83.348C32.5862 83.348 32.9128 83.6259 33.3903 84.4846C33.7672 85.1159 34.2195 85.6211 34.4204 85.6211C34.923 85.6211 34.8727 85.419 34.1943 84.3582L33.6165 83.4743L34.32 82.8176C35.1492 82.0347 35.2496 81.1254 34.5964 80.3172C34.2697 79.9131 33.7923 79.7362 32.6616 79.6352C31.8324 79.5594 31.0786 79.5846 30.9782 79.711ZM34.0688 81.0243C34.345 81.782 33.5662 82.5903 32.5612 82.5903C31.7571 82.5903 31.5812 82.2366 31.732 80.9991C31.8324 80.3424 31.9078 80.292 32.8627 80.3677C33.6416 80.4181 33.918 80.5697 34.0688 81.0243Z" fill="white"/>
<path id="Vector_16" d="M37.4356 82.464C36.6818 84.0806 36.0537 85.4696 36.0537 85.5202C36.0537 85.5706 36.2548 85.6212 36.5311 85.6212C36.8075 85.6212 37.109 85.3181 37.3101 84.8635C37.6116 84.1563 37.7121 84.1057 38.9432 84.1057C40.1745 84.1057 40.275 84.1563 40.5765 84.8635C40.9534 85.7727 41.7072 85.9494 41.4308 85.0402C41.1795 84.1815 39.295 79.9635 39.0438 79.711C38.9181 79.5847 38.2397 80.7718 37.4356 82.464ZM39.4458 82.2367C39.9735 83.5248 39.9484 83.6005 38.9432 83.6005C38.4659 83.6005 38.0639 83.4996 38.0639 83.348C38.0639 83.0955 38.8678 81.3274 38.9935 81.3274C39.0186 81.3274 39.2447 81.7317 39.4458 82.2367Z" fill="white"/>
<path id="Vector_17" d="M43.0897 82.7417C43.0897 85.1664 43.165 85.8989 43.4162 85.8231C43.6173 85.7473 43.7681 84.9644 43.8435 83.6006L43.9692 81.479L45.8284 83.5752C47.3109 85.1917 47.7382 85.5706 47.914 85.2675C48.2155 84.7117 48.0647 79.6605 47.7382 79.7362C47.6125 79.7614 47.3863 80.6959 47.2859 81.8072L47.0597 83.8279L45.8033 82.3882C45.0999 81.6051 44.3711 80.6959 44.17 80.3928C43.9692 80.0897 43.6424 79.7866 43.4415 79.7109C43.14 79.6099 43.0897 80.0897 43.0897 82.7417Z" fill="white"/>
<path id="Vector_18" d="M51.3051 80.0899C49.295 81.6053 49.496 84.4088 51.7071 85.4444C52.8629 86 53.3404 85.9748 54.3454 85.3687C55.0489 84.9392 55.1495 84.7877 54.8981 84.4846C54.6469 84.1815 54.5465 84.1815 54.245 84.4846C53.265 85.4696 51.6568 85.0908 51.0287 83.7269C50.4507 82.5146 50.5261 81.8832 51.3553 81.0497C52.1594 80.2666 53.265 80.0899 54.1443 80.6203C54.8228 81.0497 55.0741 80.6709 54.5212 80.0647C53.8931 79.3828 52.2598 79.408 51.3051 80.0899Z" fill="white"/>
<path id="Vector_19" d="M58.1414 79.7616C57.2619 79.8374 57.2117 79.8877 57.1111 80.8981C57.061 81.4789 57.0107 82.7418 57.0357 83.7269V85.4948L58.8701 85.5706C60.3524 85.6211 60.6792 85.5706 60.6792 85.2423C60.6792 84.9392 60.3777 84.8634 59.2971 84.8634H57.9152V83.9794V83.0955H59.1716C60.252 83.0955 60.4278 83.0197 60.4278 82.5903C60.4278 82.1609 60.252 82.0851 59.1716 82.0851H57.9152V81.2012V80.3172H59.2971C60.0509 80.3172 60.6792 80.2162 60.6792 80.0899C60.6792 79.812 59.3977 79.6604 58.1414 79.7616Z" fill="white"/>
<path id="Vector_20" d="M66.3819 79.8374C65.7788 80.1908 65.4522 81.1001 65.7285 81.6305C65.8542 81.8578 66.6331 82.4136 67.4622 82.8682C69.1459 83.7521 69.4221 84.4088 68.3167 84.914C67.789 85.1665 67.5376 85.1413 66.9095 84.7877C65.427 83.929 64.8492 84.4594 66.3065 85.3432C67.3618 86.0252 68.216 86.0252 69.0705 85.3432C70.3267 84.3582 69.6232 82.767 67.5879 81.9841C66.6583 81.6053 66.4322 81.4285 66.5076 80.9739C66.5577 80.5445 66.7588 80.4435 67.4622 80.4687C67.9398 80.4687 68.5428 80.5697 68.794 80.6708C69.0955 80.8224 69.2212 80.7718 69.2212 80.4687C69.2212 79.6858 67.3618 79.2564 66.3819 79.8374Z" fill="white"/>
<path id="Vector_21" d="M72.0848 80.4181C71.331 81.1759 71.2305 81.4286 71.2305 82.5903C71.2305 83.7521 71.331 84.0048 72.0848 84.7625C72.914 85.596 73.3915 85.7475 74.7483 85.6211C75.6779 85.5454 76.2307 85.1917 76.7583 84.2825C78.065 82.1357 76.4821 79.5595 73.8438 79.5595C73.1401 79.5595 72.7381 79.7616 72.0848 80.4181ZM75.7784 81.0497C76.7082 81.9841 76.7333 83.0449 75.8538 84.0805C74.9995 85.1159 73.5422 85.1917 72.6124 84.2321C71.7079 83.348 71.7331 81.5801 72.6377 80.8476C73.6176 80.0647 74.8738 80.1404 75.7784 81.0497Z" fill="white"/>
<path id="Vector_22" d="M79.1711 80.7212C78.97 82.2115 78.97 84.3079 79.1711 85.0656C79.3218 85.596 79.4475 85.6463 81.0053 85.5706C81.9351 85.5202 82.6135 85.3938 82.5381 85.2675C82.4627 85.1159 81.9351 85.0402 81.3571 85.0908C80.4022 85.1413 80.2515 85.0908 80.0253 84.4846C79.8998 84.1309 79.7741 82.8682 79.7741 81.6811C79.7741 79.3827 79.4475 78.8523 79.1711 80.7212Z" fill="white"/>
<path id="Vector_23" d="M84.2225 79.711C83.946 80.0141 84.0214 83.449 84.3229 84.333C84.8506 85.8737 86.7351 86.2525 88.0166 85.0654C88.5191 84.5604 88.5695 84.2825 88.5695 82.0093C88.5695 80.1403 88.4941 79.5341 88.2679 79.6099C88.0418 79.6856 87.891 80.5191 87.8157 82.0599C87.715 84.0046 87.6146 84.4592 87.2126 84.7623C86.5843 85.2169 86.0316 85.2169 85.4286 84.7623C85.0517 84.4846 84.9512 84.0046 84.8506 82.1861C84.7502 80.0141 84.5743 79.3573 84.2225 79.711Z" fill="white"/>
<path id="Vector_24" d="M90.3273 79.9889C90.3273 80.1908 90.6539 80.3172 91.0811 80.3172H91.8349V82.5651C91.8349 85.0402 91.9606 85.6211 92.4882 85.6211C92.7645 85.6211 92.8399 85.0656 92.8399 82.9692V80.3172H93.5937C94.0963 80.3172 94.3475 80.1908 94.3475 79.9383C94.3475 79.6604 93.9455 79.5847 92.3375 79.6352C90.9303 79.6604 90.3273 79.7868 90.3273 79.9889Z" fill="white"/>
<path id="Vector_25" d="M99.9004 80.1908C98.0912 81.7316 98.4178 84.4846 100.503 85.4948C101.232 85.8233 101.559 85.8484 102.413 85.6211C104.398 85.0907 105.252 83.5501 104.624 81.7316C103.921 79.711 101.458 78.9027 99.9004 80.1908ZM103.267 80.9485C104.674 82.3378 103.72 84.914 101.81 84.914C100.755 84.914 100.252 84.5855 99.7245 83.5247C98.5938 81.3528 101.534 79.1806 103.267 80.9485Z" fill="white"/>
<path id="Vector_26" d="M106.835 79.711C106.734 79.8119 106.659 81.2012 106.659 82.767C106.659 84.9644 106.734 85.6463 106.986 85.5705C107.187 85.4948 107.312 84.7624 107.363 83.3986C107.413 82.262 107.539 81.3274 107.664 81.3274C107.815 81.3274 107.916 81.4031 107.916 81.5043C107.916 81.7568 111.182 85.4696 111.483 85.5705C111.609 85.6211 111.659 84.3582 111.634 82.7418C111.559 79.4331 111.107 78.7008 110.981 81.7062C110.931 82.7418 110.855 83.6005 110.805 83.6005C110.705 83.6005 108.569 81.3528 107.639 80.2414C107.312 79.8373 106.936 79.61 106.835 79.711Z" fill="white"/>
<path id="Vector_27" d="M113.946 80.0645C113.669 80.3424 113.443 80.898 113.443 81.3274C113.443 82.0094 113.594 82.1609 115.077 82.8176C116.86 83.6257 117.087 84.1057 116.057 84.7623C115.453 85.1665 115.353 85.1665 114.549 84.7877C113.494 84.2573 113.443 84.2573 113.443 84.7371C113.443 85.1917 114.7 85.8737 115.529 85.8737C116.458 85.8737 117.464 84.9644 117.464 84.1057C117.464 83.2217 116.358 82.2115 115.102 81.9842C114.147 81.8072 113.896 81.2264 114.499 80.6203C114.85 80.2666 115.931 80.216 116.458 80.5445C117.036 80.9234 117.288 80.5697 116.81 80.0393C116.207 79.3826 114.624 79.3826 113.946 80.0645Z" fill="white"/>
<path id="Vector_28" d="M96.0822 80.7464C95.9063 82.6155 96.1325 85.6463 96.434 85.5452C96.6351 85.4948 96.7606 84.5098 96.8109 82.6407C96.8612 80.317 96.8109 79.812 96.5094 79.812C96.2832 79.812 96.1325 80.1403 96.0822 80.7464Z" fill="white"/>
<path id="Vector_29" d="M70.6976 20.4582L80.4968 9.75541L80.497 31.6344L70.6976 20.4582Z" fill="#E8BE6F"/>
<path id="Vector_30" d="M59.6644 31.1608L67.9651 40.0165H59.6646L59.6644 31.1608Z" fill="#E8BE6F"/>
<path id="Vector_31" d="M40.0745 8.3348L45.3511 14.87V26.9934L40.0745 33.3392V8.3348Z" fill="#E8BE6F"/>
<path id="Vector_32" d="M59.8617 0.0947151H73.3359L64.2903 8.52423L64.3845 5.11454L59.8617 0.0947151Z" fill="#E8BE6F"/>
</g>
<defs>
<clipPath id="clip0_574_173">
<rect width="124" height="86" fill="white" transform="translate(0.5)"/>
</clipPath>
</defs>
</svg>
