<svg width="15" height="15" viewBox="0 0 15 15" fill="none" xmlns="http://www.w3.org/2000/svg">
<path id="Vector" d="M14.9352 5.70226C14.779 5.22741 14.3666 4.88377 13.8667 4.8088L10.3179 4.29646L8.68088 1.04123C8.57362 0.819474 8.40583 0.632573 8.19688 0.502116C7.98792 0.371658 7.74633 0.302964 7.5 0.303966C6.99391 0.303966 6.54405 0.585127 6.31912 1.04123L4.73212 4.25897L4.68214 4.29646L1.13326 4.8088C0.633415 4.88377 0.221045 5.22741 0.0648446 5.70226C-0.0913561 6.18336 0.0398527 6.70195 0.402238 7.05809L2.97018 9.5573L2.98892 9.61978L2.38286 13.1562C2.29539 13.6498 2.49533 14.1434 2.9077 14.4433C3.31382 14.7369 3.8449 14.7807 4.29476 14.5432L7.46876 12.875L10.7052 14.5432C10.8989 14.6432 11.1114 14.6932 11.3175 14.6932C12.1348 14.6932 12.7596 13.9597 12.6171 13.1562L12.0111 9.61978L14.5978 7.05809C14.9601 6.70195 15.0914 6.18336 14.9352 5.70226Z" fill="#E8BE6F"/>
</svg>
