<svg width="52" height="59" viewBox="0 0 52 59" fill="none" xmlns="http://www.w3.org/2000/svg">
<g id="Group">
<path id="Vector" d="M35.2541 44.2566C35.7722 44.2566 36.1922 43.8366 36.1922 43.3185C36.1922 42.8004 35.7722 42.3804 35.2541 42.3804C34.736 42.3804 34.316 42.8004 34.316 43.3185C34.316 43.8366 34.736 44.2566 35.2541 44.2566Z" fill="white"/>
<path id="Vector_2" d="M23.4946 38.7418L24.9352 37.3014V27.7442L21.7461 29.5159C20.7227 30.0848 19.87 30.917 19.2761 31.9262C18.6823 32.9354 18.3689 34.085 18.3685 35.2559V46.0155H22.6052C22.4585 45.9344 22.3361 45.8156 22.251 45.6712C22.1658 45.5268 22.1209 45.3623 22.1209 45.1947V42.0585C22.1192 41.4423 22.2397 40.8319 22.4755 40.2626C22.7113 39.6933 23.0577 39.1764 23.4946 38.7419V38.7418ZM27.7494 42.0585C27.7504 41.6887 27.6781 41.3225 27.5366 40.9809C27.3951 40.6392 27.1873 40.3291 26.9251 40.0683L25.8733 39.0165L24.8214 40.0685C24.5593 40.3292 24.3515 40.6393 24.21 40.9809C24.0685 41.3224 23.9961 41.6887 23.9971 42.0584V44.2566H24.9352V46.0155H26.8114V44.2566H27.7494V42.0585ZM32.4399 43.3185C32.4406 42.7363 32.6216 42.1687 32.9579 41.6935C33.2943 41.2184 33.7695 40.859 34.3183 40.6648L34.3218 26.7049C34.36 25.9343 34.5876 25.185 34.9845 24.5233L35.6599 23.3977C36.622 21.7939 37.1303 19.9589 37.1304 18.0886V12.7842C37.7466 11.7741 38.0713 10.6132 38.0685 9.42991C38.0685 9.18112 37.9696 8.94251 37.7937 8.76658C37.6178 8.59066 37.3792 8.49182 37.1304 8.49182H30.4025C28.7043 8.49371 27.0761 9.16916 25.8753 10.37C24.6745 11.5708 23.999 13.1989 23.9971 14.8971V18.0886C23.9972 19.9589 24.5054 21.7939 25.4675 23.3977L26.143 24.5233C26.5399 25.185 26.7675 25.9343 26.8056 26.7049L26.8103 37.3004L28.2518 38.7418C28.6887 39.1763 29.0351 39.6932 29.2709 40.2625C29.5067 40.8318 29.6273 41.4423 29.6256 42.0585V45.1947C29.6256 45.3623 29.5807 45.5268 29.4956 45.6712C29.4104 45.8156 29.2881 45.9344 29.1413 46.0155H34.4515C33.8708 45.8419 33.3616 45.4858 32.9992 45C32.6368 44.5142 32.4407 43.9245 32.4399 43.3185ZM28.6875 27.1014V26.9365C28.6875 25.7463 28.364 24.5785 27.7518 23.5579L27.0764 22.4324C26.2892 21.1202 25.8733 19.6187 25.8733 18.0885V16.8013L32.6371 15.7606C33.5737 15.6183 34.4674 15.271 35.2542 14.7434V18.0886C35.2541 19.6188 34.8383 21.1202 34.0511 22.4324L33.3757 23.5579C32.7634 24.5785 32.44 25.7463 32.4399 26.9365V27.1014L30.5637 32.73L28.6875 27.1014Z" fill="white"/>
<path id="Vector_3" d="M51.2022 27.5741C51.2043 27.0229 51.0735 26.4793 50.8209 25.9893C50.5684 25.4994 50.2015 25.0775 49.7513 24.7594C50.2155 24.4288 50.5907 23.9886 50.8435 23.4779C51.0963 22.9672 51.2189 22.402 51.2003 21.8324C51.1817 21.2629 51.0225 20.7068 50.7369 20.2137C50.4514 19.7206 50.0482 19.3058 49.5635 19.0063C49.2029 18.7833 48.8044 18.6283 48.3879 18.549V3.80134C48.3871 3.0552 48.0903 2.33987 47.5627 1.81227C47.0351 1.28467 46.3198 0.987899 45.5737 0.987061H15.5547C14.8086 0.987899 14.0933 1.28467 13.5657 1.81227C13.0381 2.33987 12.7413 3.0552 12.7405 3.80134V4.95214C10.8756 5.37677 9.21029 6.42213 8.01725 7.91697C6.82422 9.41182 6.17422 11.2675 6.17375 13.1801C6.17327 15.0926 6.82234 16.9487 8.01463 18.4441C9.20692 19.9396 10.8717 20.9858 12.7364 21.4113L8.11942 26.6877C7.48722 27.4081 7.09206 28.3057 6.98761 29.2584L6.27208 35.6984C6.25746 35.8294 6.21544 35.9558 6.14875 36.0695C6.08207 36.1832 5.9922 36.2815 5.885 36.3582L0 40.5616L1.09053 42.0884L6.97541 37.8848C7.29703 37.6548 7.56664 37.3597 7.76673 37.0187C7.96681 36.6777 8.09289 36.2985 8.13677 35.9055L8.8523 29.4655C8.91499 28.8939 9.15207 28.3554 9.53136 27.9232L14.4748 22.2738L15.2841 23.6229C15.578 24.1159 15.7148 24.6867 15.6763 25.2595C15.6378 25.8322 15.4258 26.3796 15.0684 26.8288L12.946 29.4818C12.813 29.6482 12.7405 29.8549 12.7405 30.0679V50.3362L12.1638 50.1409C11.7229 49.9911 11.2517 49.9532 10.7926 50.0308C10.3335 50.1084 9.90092 50.2989 9.53382 50.5854L1.88791 56.5322L3.03977 58.0129L10.6858 52.0663C10.8081 51.9707 10.9523 51.9072 11.1053 51.8813C11.2584 51.8555 11.4154 51.8681 11.5623 51.9182L12.7405 52.3168V54.4583C12.7413 55.2044 13.0381 55.9197 13.5657 56.4473C14.0933 56.9749 14.8086 57.2717 15.5547 57.2726H45.5737C46.3198 57.2717 47.0351 56.9749 47.5627 56.4473C48.0903 55.9197 48.3871 55.2044 48.3879 54.4583V42.3738L49.2923 41.9217C49.8255 41.6551 50.2807 41.255 50.6135 40.7603C50.9464 40.2657 51.1456 39.6933 51.1918 39.0989C51.238 38.5045 51.1297 37.9083 50.8772 37.3681C50.6248 36.828 50.237 36.3623 49.7513 36.0165C50.2 35.697 50.5657 35.2748 50.8181 34.7853C51.0704 34.2957 51.2021 33.7529 51.2021 33.2022C51.2021 32.6514 51.0704 32.1086 50.8181 31.6191C50.5657 31.1295 50.2 30.7074 49.7513 30.3879C50.2013 30.0698 50.568 29.648 50.8205 29.1582C51.073 28.6685 51.204 28.1251 51.2022 27.5741ZM11.8024 14.1203H9.92618V12.2442H11.8024V14.1203ZM15.5547 14.1203H13.6785V12.2442H15.5547V14.1203ZM46.5117 54.4583C46.5114 54.707 46.4125 54.9454 46.2366 55.1213C46.0608 55.2971 45.8224 55.3961 45.5737 55.3964H15.5547C15.306 55.3961 15.0676 55.2971 14.8917 55.1213C14.7159 54.9454 14.6169 54.707 14.6166 54.4583V30.3971L16.5335 28.0008C17.1269 27.2546 17.4799 26.3459 17.5458 25.3948C17.6116 24.4437 17.3873 23.495 16.9024 22.6741L20.6574 25.2162C20.8082 25.3184 20.9855 25.3744 21.1677 25.3774C21.3499 25.3805 21.529 25.3304 21.6831 25.2333C21.8373 25.1363 21.9599 24.9964 22.0359 24.8309C22.1119 24.6653 22.1381 24.4812 22.1112 24.301L21.2352 18.4244C22.2204 17.1804 22.8351 15.684 23.0088 14.1067C23.1825 12.5294 22.9082 10.935 22.2173 9.50645C21.5264 8.0779 20.4469 6.87296 19.1026 6.02982C17.7582 5.18667 16.2035 4.73945 14.6166 4.73943V3.80134C14.6169 3.55263 14.7159 3.31421 14.8917 3.13835C15.0676 2.96249 15.306 2.86355 15.5547 2.86324H20.4509L20.856 4.48391C21.0076 5.09313 21.3588 5.63405 21.8536 6.0204C22.3485 6.40675 22.9584 6.6163 23.5862 6.61561H37.5422C38.17 6.6163 38.7799 6.40675 39.2748 6.0204C39.7696 5.63405 40.1208 5.09313 40.2724 4.48391L40.6775 2.86324H45.5737C45.8224 2.86355 46.0608 2.96249 46.2366 3.13835C46.4125 3.31421 46.5114 3.55263 46.5117 3.80134V18.7202C46.4072 18.7605 46.3035 18.8042 46.2017 18.855L43.7314 20.0902C43.1981 20.3569 42.7429 20.757 42.4101 21.2516C42.0772 21.7463 41.878 22.3186 41.8317 22.913C41.7855 23.5074 41.8939 24.1037 42.1463 24.6438C42.3987 25.184 42.7865 25.6496 43.2722 25.9955C42.8235 26.315 42.4578 26.7371 42.2054 27.2267C41.9531 27.7162 41.8214 28.259 41.8214 28.8098C41.8214 29.3606 41.9531 29.9034 42.2054 30.3929C42.4578 30.8825 42.8235 31.3046 43.2722 31.6241C42.8555 31.919 42.5099 32.3031 42.2607 32.7486C41.694 31.3766 40.6793 30.237 39.3819 29.5157L36.1927 27.744V40.6655C36.7529 40.8635 37.2359 41.2337 37.5728 41.723C37.9096 42.2124 38.0829 42.7958 38.0679 43.3897C38.0528 43.9836 37.8502 44.5574 37.4891 45.0291C37.1279 45.5008 36.6267 45.8461 36.0573 46.0155H42.7594V42.4355C42.9672 42.6551 43.2027 42.8468 43.46 43.0057C43.9114 43.2874 44.4222 43.46 44.952 43.5098C45.4818 43.5595 46.0158 43.4851 46.5117 43.2923V54.4583ZM17.4309 14.1203V12.2442H19.3071V14.1203H17.4309ZM48.4531 40.2436L45.9828 41.4788C45.742 41.5992 45.4745 41.656 45.2056 41.6439C44.9367 41.6318 44.6754 41.5512 44.4464 41.4097C44.2174 41.2682 44.0285 41.0705 43.8974 40.8354C43.7663 40.6003 43.6975 40.3356 43.6975 40.0664C43.6965 39.773 43.7777 39.4851 43.932 39.2354C44.0863 38.9858 44.3074 38.7844 44.5704 38.654L47.0408 37.4188C47.2816 37.2984 47.5491 37.2416 47.818 37.2538C48.0868 37.2659 48.3482 37.3465 48.5771 37.488C48.8061 37.6295 48.995 37.8272 49.1261 38.0623C49.2572 38.2974 49.326 38.562 49.326 38.8312C49.327 39.1247 49.2458 39.4125 49.0915 39.6622C48.9372 39.9118 48.7161 40.1132 48.4531 40.2436ZM48.4531 34.6151L45.9827 35.8503C45.7419 35.9707 45.4744 36.0275 45.2055 36.0154C44.9366 36.0033 44.6753 35.9226 44.4463 35.7811C44.2174 35.6396 44.0284 35.4419 43.8973 35.2068C43.7663 34.9717 43.6975 34.707 43.6975 34.4379C43.6965 34.1444 43.7777 33.8565 43.932 33.6069C44.0863 33.3572 44.3074 33.1558 44.5704 33.0255L47.0408 31.7902C47.2816 31.6699 47.5491 31.6131 47.818 31.6252C48.0868 31.6373 48.3482 31.718 48.5771 31.8595C48.8061 32.001 48.995 32.1987 49.1261 32.4337C49.2572 32.6688 49.326 32.9335 49.326 33.2026C49.327 33.4961 49.2458 33.784 49.0915 34.0336C48.9372 34.2833 48.7161 34.4847 48.4531 34.6151ZM48.4531 28.9865L45.9827 30.2217C45.7419 30.3421 45.4744 30.3989 45.2055 30.3868C44.9366 30.3747 44.6753 30.2941 44.4463 30.1526C44.2174 30.0111 44.0284 29.8134 43.8973 29.5783C43.7663 29.3432 43.6975 29.0785 43.6975 28.8093C43.6965 28.5159 43.7777 28.228 43.932 27.9783C44.0863 27.7287 44.3074 27.5273 44.5704 27.3969L47.0408 26.1617C47.2816 26.0413 47.5491 25.9845 47.818 25.9967C48.0868 26.0088 48.3482 26.0894 48.5771 26.2309C48.8061 26.3724 48.995 26.5701 49.1261 26.8052C49.2572 27.0403 49.326 27.3049 49.326 27.5741C49.327 27.8676 49.2458 28.1554 49.0915 28.4051C48.9372 28.6547 48.7161 28.8561 48.4531 28.9865ZM48.4531 23.358L45.9827 24.5932C45.7419 24.7135 45.4744 24.7703 45.2055 24.7582C44.9366 24.7461 44.6753 24.6655 44.4464 24.5239C44.2174 24.3824 44.0285 24.1848 43.8974 23.9497C43.7663 23.7146 43.6975 23.4499 43.6975 23.1808C43.6965 22.8873 43.7777 22.5994 43.932 22.3498C44.0863 22.1001 44.3074 21.8987 44.5704 21.7684L47.0407 20.5331C47.2815 20.4128 47.549 20.3559 47.8179 20.3681C48.0868 20.3802 48.3481 20.4608 48.5771 20.6023C48.806 20.7438 48.995 20.9415 49.1261 21.1766C49.2572 21.4117 49.326 21.6764 49.326 21.9455C49.327 22.239 49.2458 22.5269 49.0915 22.7765C48.9372 23.0262 48.7161 23.2276 48.4531 23.358Z" fill="white"/>
<path id="Vector_4" d="M30.5639 53.5202C32.1182 53.5202 33.3782 52.2602 33.3782 50.7059C33.3782 49.1516 32.1182 47.8916 30.5639 47.8916C29.0096 47.8916 27.7496 49.1516 27.7496 50.7059C27.7496 52.2602 29.0096 53.5202 30.5639 53.5202Z" fill="white"/>
</g>
</svg>
